<?xml version="1.0" encoding="utf-8"?>
<!-- Generator: Adobe Illustrator 24.3.0, SVG Export Plug-In . SVG Version: 6.00 Build 0)  -->
<svg version="1.1" id="Layer_1" xmlns="http://www.w3.org/2000/svg" xmlns:xlink="http://www.w3.org/1999/xlink" x="0px" y="0px"
	 viewBox="0 0 1920 1080" style="enable-background:new 0 0 1920 1080;" xml:space="preserve">
<style type="text/css">
	.st0{fill:#FEFEFE;}
	.st1{fill:#3772B9;}
	.st2{fill:#7499C0;}
</style>
<g>
	<path class="st0" d="M1084,442.09c0.01-3.42-0.67-4.1-4.09-4.09c-81.27,0.12-162.54,0.1-243.81,0.1c0,66.27,0.03,132.54-0.1,198.81
		c-0.01,3.42,0.67,4.1,4.09,4.09c79.94-0.12,159.88-0.12,239.81,0c3.42,0.01,4.1-0.67,4.09-4.09
		C1083.87,571.97,1083.87,507.03,1084,442.09z M854.48,466.68c7.53-3.43,13.67-9.19,21-13c5.71-2.97,10.76,5.66,5.05,8.63
		c-7.33,3.81-13.47,9.57-21,13C853.7,477.97,848.63,469.34,854.48,466.68z M848.32,516.52c-3.75,5.16-12.43,0.16-8.63-5.05
		c6.23-8.56,14.17-15.04,22.78-20.69c0.07-0.1,0.14-0.21,0.22-0.31c9.41-12.27,21.38-21.72,32.78-32.01
		c4.77-4.3,11.86,2.75,7.07,7.07c-2.43,2.19-4.91,4.35-7.4,6.5c4.8-0.96,8.33,6.29,3.39,9.28
		C881.34,491.72,860.51,499.77,848.32,516.52z M979.05,618.19c-3.48,0.69-4.14,0.08-4.11-3.31c0.15-16.14,0.17-32.29-0.01-48.43
		c-0.04-3.35,0.96-4.39,4.19-4.18c3.65,0.24,7.34-0.17,10.98,0.12c3.07,0.25,4.04-1.04,4.39-3.84c0.63-5.11,1.5-10.19,2.38-15.27
		c0.51-2.94,0.18-4.61-3.57-4.35c-4.97,0.35-9.99-0.05-14.97,0.14c-2.66,0.1-3.49-0.79-3.36-3.4c0.2-3.82,0-7.65,0.05-11.48
		c0.11-8.31,4.2-12.49,12.51-13.04c3.44-0.23,7.95,1.55,10.05-0.86c2.19-2.51,0.67-7,0.71-10.62c0.1-8.91,0.03-8.96-9.05-9.52
		c-3.65-0.23-7.32-0.39-10.98-0.28c-16.49,0.52-27.41,11.11-28.26,27.55c-0.31,5.98-0.26,11.98-0.1,17.97
		c0.07,2.83-0.82,3.81-3.67,3.69c-4.65-0.2-9.32,0.05-13.98-0.11c-2.4-0.08-3.19,0.77-3.14,3.14c0.13,5.66,0.16,11.32-0.01,16.97
		c-0.09,2.82,1.24,3.32,3.63,3.26c4.49-0.11,8.99-0.09,13.48,0c1.31,0.03,3.2-0.78,3.53,1.59c0.09,17.43,0.18,34.87,0.29,52.3
		c0.02,2.64-0.97,3.37-3.29,1.94c-28.5-3.96-54.68-28.54-62.68-58.84c-11.59-43.89,16.6-90.17,60.48-99.28
		c46.55-9.67,90.11,19.82,97.63,66.08C1049.08,568.77,1020.8,609.88,979.05,618.19z"/>
	<path class="st1" d="M946.72,618.2c-28.5-3.96-54.68-28.54-62.68-58.84c-11.59-43.89,16.6-90.17,60.48-99.28
		c46.55-9.67,90.11,19.82,97.63,66.08c6.93,42.61-21.35,83.72-63.1,92.03c-3.48,0.69-4.14,0.08-4.11-3.31
		c0.15-16.14,0.17-32.29-0.01-48.43c-0.04-3.35,0.96-4.39,4.19-4.18c3.65,0.24,7.34-0.17,10.98,0.12c3.07,0.25,4.04-1.04,4.39-3.84
		c0.63-5.11,1.5-10.19,2.38-15.27c0.51-2.94,0.18-4.61-3.57-4.35c-4.97,0.35-9.99-0.05-14.97,0.14c-2.66,0.1-3.49-0.79-3.36-3.4
		c0.2-3.82,0-7.65,0.05-11.48c0.11-8.31,4.2-12.49,12.51-13.04c3.44-0.23,7.95,1.55,10.05-0.86c2.19-2.51,0.67-7,0.71-10.62
		c0.1-8.91,0.03-8.96-9.05-9.52c-3.65-0.23-7.32-0.39-10.98-0.28c-16.49,0.52-27.41,11.11-28.26,27.55
		c-0.31,5.98-0.26,11.98-0.1,17.97c0.07,2.83-0.82,3.81-3.67,3.69c-4.65-0.2-9.32,0.05-13.98-0.11c-2.4-0.08-3.19,0.77-3.14,3.14
		c0.13,5.66,0.16,11.32-0.01,16.97c-0.09,2.82,1.24,3.32,3.63,3.26c4.49-0.11,8.99-0.09,13.48,0c1.31,0.03,3.2-0.78,3.53,1.59
		c-1.2,1.64-0.67,3.53-0.68,5.3c-0.04,14.58,0,29.16-0.05,43.74C948.99,614.97,949.91,617.54,946.72,618.2z"/>
	<path class="st2" d="M946.72,618.2c3.19-0.66,2.27-3.22,2.27-5.19c0.06-14.58,0.01-29.16,0.05-43.74c0.01-1.77-0.52-3.66,0.68-5.3
		c0.09,17.43,0.18,34.87,0.29,52.3C950.03,618.9,949.04,619.63,946.72,618.2z"/>
</g>
</svg>
