<?xml version="1.0" encoding="utf-8"?>
<!-- Generator: Adobe Illustrator 24.3.0, SVG Export Plug-In . SVG Version: 6.00 Build 0)  -->
<svg version="1.1" id="Layer_1" xmlns="http://www.w3.org/2000/svg" xmlns:xlink="http://www.w3.org/1999/xlink" x="0px" y="0px"
	 viewBox="0 0 1920 1080" style="enable-background:new 0 0 1920 1080;" xml:space="preserve">
<style type="text/css">
	.st0{fill:#FEFEFE;}
	.st1{fill:#D1D1D1;}
	.st2{fill:#7ACCF3;}
	.st3{fill:#135C9B;}
	.st4{fill:#125896;}
	.st5{fill:#10538D;}
	.st6{fill:#115591;}
	.st7{fill:#115793;}
	.st8{fill:#10518A;}
	.st9{fill:#0F4F87;}
	.st10{fill:#0E4C83;}
	.st11{fill:#0E4B80;}
	.st12{fill:#0D487D;}
	.st13{fill:#0E4779;}
	.st14{fill:#104F87;}
	.st15{fill:#DADADA;}
	.st16{fill:#D7D7D7;}
	.st17{fill:#D6D6D6;}
	.st18{fill:#D3D3D3;}
	.st19{fill:#DBDBDB;}
	.st20{fill:#DCDCDC;}
</style>
<g>
	<path class="st0" d="M978.99,310.1c68.97,0,137.94,0.03,206.91-0.1c3.42-0.01,4.1,0.67,4.09,4.09c-0.11,150.6-0.11,301.21,0,451.81
		c0,3.42-0.67,4.1-4.09,4.09c-150.6-0.11-301.21-0.11-451.81,0c-3.42,0-4.1-0.67-4.09-4.09c0.11-150.6,0.11-301.21,0-451.81
		c0-3.42,0.67-4.1,4.09-4.09c79.97,0.12,159.93,0.1,239.9,0.1C975.66,310.93,977.33,310.93,978.99,310.1z"/>
	<path class="st1" d="M978.99,310.1c-1.67,1.4-3.33,1.58-5,0C975.66,310.1,977.33,310.1,978.99,310.1z"/>
	<path class="st2" d="M882.91,652.78c-12.04-12.16-24.24-24.17-36.3-36.29c-11.71-11.78-23.38-23.61-35.09-35.4
		c-6.35-6.39-12.24-12.88-16.15-21.2c-7.88-16.77-4.78-38.41,8.16-52.01c31.56-33.15,64.49-64.93,96.68-97.45
		c12.76-12.89,25.66-25.65,38.45-38.51c21.49-21.61,57.12-28.17,85.01-15.97c30.87,13.5,49.33,44.33,48.16,76.1
		c-0.54,14.71-5.42,28.23-13.67,40.55c-7.93,11.83-18.85,20.8-28.69,30.82c-11.75,11.96-23.44,23.98-35.12,36.01
		c-0.3,0.31-0.27,0.94-0.4,1.42c-6.38,7.27-13.61,13.7-20.27,20.69c-3.76,3.61-7.4,7.34-11.06,11.04c-2.58,2.14-4.09,5.32-7,7.13
		c-2.87,2.44-5.38,5.24-8.05,7.88c-3.05,2.96-6.03,5.98-9,9.01c-2.28,2.21-4.52,4.48-6.76,6.73c-0.47,0.5-0.95,0.97-1.44,1.45
		c-2.56,2.56-5.2,5.03-7.58,7.76c-1.8,2.95-4.5,4.98-7.16,7.06c-3.12,2.9-6.07,5.98-9.06,9c-2.82,2.31-4.33,5.82-7.31,7.99
		C893.15,641.32,888.04,647.07,882.91,652.78z"/>
	<path class="st3" d="M972.84,560.92c5.56-5.73,11.07-11.51,16.71-17.16c1.22-1.23,2.2-3.06,4.39-2.93
		c10.92,11.09,21.83,22.2,32.76,33.28c6.52,6.61,12.81,13.48,19.66,19.74c21.59,19.75,31.29,54.63,21.24,82.98
		c-12.04,33.94-44.43,55.3-77.4,53.95c-19.61-0.8-36.74-8.27-51.04-21.84c-4.33-4.11-8.36-8.54-12.53-12.83
		c1.98-5.19,5.89-9.18,8.74-13.84c11.47-18.74,21.77-37.99,28.87-58.88c6.19-18.21,10.84-36.61,9.44-56.07
		C973.53,565.16,973.04,563.06,972.84,560.92z"/>
	<path class="st4" d="M972.84,560.92c2.1,0.88,2.04,2.7,2.18,4.59c1.75,24.83-5.47,47.71-14.19,70.54
		c-6.87,17.98-17.17,33.95-26.42,50.55c-1.93,3.47-4.21,7.15-7.78,9.51c-1.65-1.55-3.94-2.46-4.77-4.81c-0.85-2.7,1.1-4.35,2.39-6.2
		c14.64-21.02,26.04-43.64,33.19-68.27c3.31-11.38,4.96-23.04,4.3-34.96c-0.18-3.31-0.22-6.64,0.11-9.96
		C965.17,567.9,968.83,564.23,972.84,560.92z"/>
	<path class="st5" d="M938.19,596.02c2.5-3.4,5.36-6.46,8.63-9.11c4.57-0.96,4.25,2.53,4.46,5.16c0.7,8.9-0.94,17.6-2.99,26.16
		c-5.37,22.44-15.82,42.6-28.27,61.82c-1.51,2.34-3.05,4.54-6.38,3.02c-1.32-1.33-2.64-2.66-3.96-3.99
		c6.27-9.17,11.87-18.72,16.74-28.73c6.89-14.15,11.86-28.78,13.14-44.57C939.86,602.36,939.01,599.23,938.19,596.02z"/>
	<path class="st6" d="M913.65,683.08c5.22,0.36,6.04-4.62,7.67-7.43c7.5-12.9,15.54-25.62,20.23-39.93
		c4.64-14.17,9.17-28.41,8.47-43.65c-0.11-2.39,0.15-4.85-3.2-5.16c2.69-2.66,5.37-5.31,8.06-7.97c4.38-0.81,3.88,2.86,4.21,5.08
		c0.98,6.65-0.18,13.31-1.28,19.82c-4.53,26.81-15.89,50.89-30.33,73.66c-1.42,2.24-2.87,4.47-4.27,6.73
		c-1.25,2.02-2.67,3.98-5.58,2.85C916,686.05,914.71,684.68,913.65,683.08z"/>
	<path class="st7" d="M917.64,687.08c2.03-0.13,3.23-1.38,4.3-2.97c12.78-19.06,23.14-39.42,30.26-61.16
		c3.98-12.13,6.22-24.96,5.74-37.96c-0.09-2.33,0.15-5.15-3.06-6.05c2.32-2.34,4.64-4.69,6.96-7.03c2.29,2.97,0.88,6.4,1.11,9.61
		c1.22,16.85-2.32,33.05-8.26,48.57c-7.42,19.4-16.66,37.98-28.76,55c-1.44,2.02-3.29,3.77-4.08,6.21
		C920.16,690.18,918.76,688.77,917.64,687.08z"/>
	<path class="st8" d="M938.19,596.02c3.93,2.61,3,6.7,2.68,10.26c-2.27,25.51-13.43,47.59-26.9,68.75c-1.09,1.71-2.4,3.18-4.28,4.06
		c-1.27-0.72-2.28-1.71-2.98-3c4.35-8.37,9.66-16.18,13.75-24.72c6.28-13.13,10.83-26.65,11.93-41.24c0.2-2.6-0.82-4.85-1.55-7.21
		C933.09,600.4,935.3,597.84,938.19,596.02z"/>
	<path class="st9" d="M922.13,612.02c1.97-3.35,5-5.69,7.81-8.24c4.42,4.57,2.45,10.29,1.67,15.09
		c-3.07,18.67-10.91,35.58-21.07,51.44c-1.24,1.94-2.45,3.95-4.67,4.98c-1.84-0.47-3.11-1.56-3.75-3.37
		c0.24-2.96,1.99-5.26,3.48-7.62c9.55-15.09,17.31-30.73,16.17-49.32C921.71,614.01,922.06,613.02,922.13,612.02z"/>
	<path class="st10" d="M922.13,612.02c2.02,7.87,1.18,15.71-1.16,23.25c-4.11,13.28-10.63,25.44-18.85,36.66
		c-1.46-1.62-2.93-3.25-4.39-4.87c10.3-14.42,17.75-29.85,17.18-48.15C917.31,616.61,919.72,614.32,922.13,612.02z"/>
	<path class="st11" d="M914.91,618.91c2.1,4.26,1.42,8.75,0.53,13.04c-2.31,11.18-7.01,21.44-13.12,31.04
		c-1.09,1.71-1.83,4.12-4.6,4.07c-1.35-1.33-2.69-2.66-4.04-3.98c5.62-7.29,9.6-15.34,11.57-24.38c0.78-3.58,1.37-7.12,0.67-10.77
		C908.7,624.7,911.55,621.55,914.91,618.91z"/>
	<path class="st12" d="M905.94,627.92c1.3,0.93,2.21,2.36,1.97,3.79c-1.91,11.28-4.84,22.19-12.8,30.98
		c-0.28,0.3-0.93,0.26-1.41,0.38c-1.31-1.33-2.62-2.67-3.93-4c4.66-7.19,7.05-15.27,9.14-23.47
		C901.25,633.04,903.59,630.48,905.94,627.92z"/>
	<path class="st13" d="M898.9,635.6c0,9.01-2.47,17.06-9.14,23.47c-2.28-2.09-4.57-4.19-6.85-6.29c-0.12-2.68,1.86-4.12,3.56-5.56
		C890.8,643.54,893.64,638.28,898.9,635.6z"/>
	<path class="st14" d="M905.87,675.29c10.44-12.81,17-27.68,21.83-43.23c2.82-9.09,5.12-18.58,2.25-28.28
		c0.3-0.29,0.6-0.58,0.89-0.87c3.34,1.11,3.13,4.32,2.95,6.57c-1.06,13.12-4.25,25.78-9.93,37.69c-4.29,8.99-8.56,18.01-14.45,26.13
		c-0.78,1.08-1.32,2.32-2.7,2.79C906.43,675.82,906.15,675.56,905.87,675.29z"/>
	<path class="st15" d="M923.14,312.56c2.34-0.53,3.61-0.73,5.01-0.05C926.72,313.48,925.38,313.16,923.14,312.56z"/>
	<path class="st16" d="M996.08,312.88c-1.04,0-2.09,0-3.41,0C993.84,311.71,994.88,312.11,996.08,312.88z"/>
	<path class="st17" d="M732.36,503.6c1.14,1.3,0.5,2.38,0.84,4.49C731.79,506.02,732.17,504.96,732.36,503.6z"/>
	<path class="st18" d="M732.58,576.21c-0.68-1.1-0.61-2.17-0.03-3.6C733.28,573.99,733.31,575.05,732.58,576.21z"/>
	<path class="st19" d="M1187.89,576.13c-0.09,0.9-0.07,2.55-0.27,2.58c-1.25,0.17-0.56-0.94-0.67-1.51
		c-0.08-0.4,0.17-0.86,0.28-1.29C1187.45,575.98,1187.67,576.06,1187.89,576.13z"/>
	<path class="st20" d="M995.13,767.04c1.89,0,2.79,0,4.23,0C997.98,768.21,996.99,768.13,995.13,767.04z"/>
</g>
</svg>
