<?xml version="1.0" encoding="utf-8"?>
<!-- Generator: Adobe Illustrator 24.3.0, SVG Export Plug-In . SVG Version: 6.00 Build 0)  -->
<svg version="1.1" id="Layer_1" xmlns="http://www.w3.org/2000/svg" xmlns:xlink="http://www.w3.org/1999/xlink" x="0px" y="0px"
	 viewBox="0 0 1920 1080" style="enable-background:new 0 0 1920 1080;" xml:space="preserve">
<style type="text/css">
	.st0{fill:#FEFEFE;}
	.st1{fill:#2F3191;}
	.st2{fill:#23AAE2;}
</style>
<path class="st0" d="M959.5,1246.76c-225.64,0-451.27-0.01-676.91,0.09c-3.75,0-4.59-0.84-4.59-4.59c0.1-451.6,0.1-903.21,0-1354.81
	c0-3.75,0.84-4.59,4.59-4.59c451.61,0.1,903.21,0.1,1354.82,0c3.75,0,4.59,0.84,4.59,4.59c-0.1,451.6-0.1,903.21,0,1354.81
	c0,3.75-0.84,4.59-4.59,4.59C1411.44,1246.75,1185.47,1246.76,959.5,1246.76z M560.61,206.84c0.08,0,0.17,0,0.25,0
	c0,52.15,0.04,104.29-0.08,156.44c-0.01,3.65,0.78,4.83,4.62,4.78c17.48-0.22,34.97-0.22,52.46-0.09
	c20.32,0.16,40.64,0.71,60.97,0.79c55.15,0.23,110.3-0.17,165.43,0.57c44.33,0.6,85.29,13.35,122.29,38.01
	c4.8,3.2,9.04,5.16,15.09,3.71c3.2-0.76,6.62-1.49,9.98-1.93c13.21-1.73,26.46-3.27,39.81-3.3c33.32-0.08,66.64-0.07,99.96-0.16
	c1.54,0,3.68,1,4.54-0.71c0.68-1.36-1.08-2.61-1.87-3.82c-21.72-33.31-48.77-61.53-81.26-84.43
	c-50.16-35.36-105.93-55.11-167.27-56.74c-61.28-1.63-122.6-1.4-183.91-1.98c-7.22-0.07-7.13-0.04-7.01-7.06
	c1.06-64.96,2.4-129.92,2.97-194.88c0.23-25.61-11.47-45.81-33.5-58.79c-23.24-13.7-47.2-13.15-70.67,0.24
	c-12.06,6.88-20.96,17.2-26.82,29.35c-4.73,9.8-6.15,20.83-6.09,32.04C560.76,108.21,560.61,157.53,560.61,206.84z M1159.81,429.01
	c-39.32,0-78.64,0.02-117.96,0c-33.38-0.02-66.07,4.62-97.85,14.93c-72.84,23.61-130.21,67.62-171.89,131.79
	c-25.42,39.14-41.21,82-47.45,128.33c-1.9,14.06-2.91,28.15-2.95,42.33c-0.01,2.53,0.24,3.9,3.42,3.84
	c40.97-0.8,81.95-1.51,122.92-2.09c3.24-0.05,3.73-1.25,3.82-4.09c1.5-49.45,19.81-92.13,53.54-127.85
	c45.39-48.08,102.17-70.91,167.8-72c56.62-0.94,113.26,0.77,169.88-0.86c20.15-0.58,40.31-0.43,60.47-0.79
	c31.59-0.57,54.75-26.27,55.46-54.61c0.83-33.01-24.21-58.8-57.26-58.88C1254.44,428.91,1207.13,429.01,1159.81,429.01z M708.04,883
	c28.82-0.05,57.64,0.52,86.45,0.58c32.63,0.07,65.27-1.02,97.85-2.98c25.55-1.54,50.9-3.34,75.68-11.35
	c55.51-17.94,102.57-48.49,140.9-92.21c25.65-29.25,44.94-62.41,57.95-99.26c11.66-33,17.53-66.86,17.55-101.8
	c0-6.89-1.51-8.39-8.59-8.39c-34.33,0-68.65,0.01-102.98,0.04c-3.83,0-7.66,0.19-11.49,0.32c-2.54,0.09-3.8,1.12-3.87,3.98
	c-0.25,10.99-1.34,21.87-3.4,32.71c-6.84,36.16-23.42,67.34-48.07,94.3c-22.1,24.17-48.62,42.24-78.98,54.46
	c-17.76,7.15-35.94,13.63-55.29,14.13c-50.95,1.31-101.91,2.04-152.87,2.97c-23.48,0.43-46.97,0.74-70.45,1.14
	c-11.82,0.2-23.66,0.15-35.46,0.84c-21.47,1.25-37.44,12.02-46.57,31.09c-17.98,37.53,9.01,79.36,50.64,79.43
	C647.39,883.03,677.72,882.99,708.04,883z M763.19,904.03c-0.15,1.44,0.88,2.42,1.55,3.5c62.46,101.36,152.97,155.86,272.17,158.37
	c89.27,1.88,178.62,0.06,267.93-0.21c22.13-0.07,39.27-9.69,48.86-29.62c9.41-19.55,8.73-39.62-3.84-57.92
	c-11.33-16.5-27.49-22.6-47.66-22.82c-76.15-0.85-152.29-0.85-228.44-1.17c-55.48-0.24-105.15-17.68-148.27-52.94
	c-2.38-1.95-4.67-2.62-7.7-2.42c-50.55,3.39-101.14,5.55-151.82,4.63C765.06,903.4,763.99,903.03,763.19,904.03z M886.7,1177.5
	c-0.02,0.41-0.04,0.83-0.06,1.24c5.87-0.45,11.76,0.73,17.62-1.24C898.41,1177.5,892.56,1177.5,886.7,1177.5z"/>
<path class="st1" d="M560.61,206.84c0-49.32,0.15-98.63-0.11-147.94c-0.06-11.21,1.36-22.24,6.09-32.04
	c5.86-12.16,14.76-22.47,26.82-29.35c23.48-13.39,47.43-13.94,70.67-0.24c22.03,12.98,33.72,33.18,33.5,58.79
	c-0.58,64.96-1.91,129.92-2.97,194.88c-0.11,7.02-0.21,6.99,7.01,7.06c61.3,0.58,122.63,0.35,183.91,1.98
	c61.34,1.63,117.11,21.38,167.27,56.74c32.5,22.91,59.54,51.13,81.26,84.43c0.79,1.21,2.55,2.46,1.87,3.82
	c-0.86,1.72-3,0.71-4.54,0.71c-33.32,0.09-66.64,0.08-99.96,0.16c-13.35,0.03-26.59,1.57-39.81,3.3c-3.36,0.44-6.78,1.16-9.98,1.93
	c-6.05,1.44-10.29-0.51-15.09-3.71c-37-24.66-77.96-37.42-122.29-38.01c-55.14-0.74-110.29-0.35-165.43-0.57
	c-20.32-0.08-40.64-0.64-60.97-0.79c-17.49-0.14-34.97-0.13-52.46,0.09c-3.84,0.05-4.62-1.14-4.62-4.78
	c0.12-52.15,0.08-104.29,0.08-156.44C560.78,206.84,560.7,206.84,560.61,206.84z"/>
<path class="st1" d="M1159.81,429.01c47.32,0,94.63-0.09,141.95,0.03c33.05,0.09,58.09,25.87,57.26,58.88
	c-0.71,28.34-23.87,54.04-55.46,54.61c-20.15,0.36-40.32,0.21-60.47,0.79c-56.62,1.63-113.26-0.08-169.88,0.86
	c-65.63,1.09-122.41,23.93-167.8,72c-33.73,35.72-52.04,78.41-53.54,127.85c-0.09,2.84-0.58,4.05-3.82,4.09
	c-40.98,0.59-81.95,1.29-122.92,2.09c-3.18,0.06-3.42-1.3-3.42-3.84c0.03-14.18,1.05-28.27,2.95-42.33
	c6.25-46.33,22.03-89.2,47.45-128.33c41.68-64.16,99.05-108.18,171.89-131.79c31.78-10.3,64.47-14.94,97.85-14.93
	C1081.18,429.02,1120.49,429.01,1159.81,429.01z"/>
<path class="st2" d="M708.04,882.99c-30.33,0-60.65,0.03-90.98-0.01c-41.63-0.06-68.61-41.9-50.64-79.43
	c9.13-19.07,25.1-29.83,46.57-31.09c11.8-0.69,23.64-0.63,35.46-0.84c23.48-0.41,46.97-0.72,70.45-1.14
	c50.96-0.92,101.92-1.66,152.87-2.97c19.35-0.5,37.53-6.98,55.29-14.13c30.36-12.22,56.88-30.29,78.98-54.46
	c24.66-26.96,41.23-58.14,48.07-94.3c2.05-10.84,3.14-21.73,3.4-32.71c0.07-2.86,1.33-3.89,3.87-3.98
	c3.83-0.13,7.66-0.31,11.49-0.32c34.33-0.03,68.65-0.04,102.98-0.04c7.08,0,8.59,1.5,8.59,8.39c-0.02,34.94-5.9,68.8-17.55,101.8
	c-13.01,36.85-32.31,70.01-57.95,99.26c-38.33,43.72-85.39,74.27-140.9,92.21c-24.78,8.01-50.13,9.81-75.68,11.35
	c-32.59,1.96-65.22,3.05-97.85,2.98C765.68,883.51,736.86,882.95,708.04,882.99z"/>
<path class="st1" d="M763.19,904.03c0.8-1,1.87-0.63,2.79-0.61c50.68,0.91,101.27-1.24,151.82-4.63c3.04-0.2,5.32,0.47,7.7,2.42
	c43.12,35.27,92.78,52.7,148.27,52.94c76.15,0.33,152.29,0.33,228.44,1.17c20.17,0.22,36.32,6.33,47.66,22.82
	c12.58,18.3,13.25,38.37,3.84,57.92c-9.59,19.93-26.73,29.56-48.86,29.62c-89.31,0.27-178.66,2.08-267.93,0.21
	c-119.21-2.5-209.71-57.01-272.17-158.37C764.08,906.45,763.04,905.47,763.19,904.03z"/>
<path class="st2" d="M886.7,1177.5c5.85,0,11.71,0,17.56,0c-5.86,1.97-11.75,0.79-17.62,1.24
	C886.67,1178.33,886.68,1177.92,886.7,1177.5z"/>
</svg>
