<?xml version="1.0" encoding="utf-8"?>
<!-- Generator: Adobe Illustrator 24.3.0, SVG Export Plug-In . SVG Version: 6.00 Build 0)  -->
<svg version="1.1" id="Layer_1" xmlns="http://www.w3.org/2000/svg" xmlns:xlink="http://www.w3.org/1999/xlink" x="0px" y="0px"
	 viewBox="0 0 1920 1080" style="enable-background:new 0 0 1920 1080;" xml:space="preserve">
<style type="text/css">
	.st0{fill:#E4D48B;}
	.st1{fill:#C29C5A;}
</style>
<g>
	<path d="M460.09,540c0-165.14,0.01-330.27-0.09-495.41c0-3.75,0.84-4.59,4.59-4.59c330.27,0.1,660.54,0.1,990.81,0
		c3.75,0,4.59,0.84,4.59,4.59c-0.1,330.27-0.1,660.54,0,990.82c0,3.75-0.84,4.59-4.59,4.59c-330.27-0.1-660.54-0.1-990.81,0
		c-3.75,0-4.6-0.84-4.59-4.59C460.11,870.27,460.09,705.14,460.09,540z M675.77,595.11c0.08-0.39,0.15-0.79,0.23-1.18
		c1.5-0.83,1.86,1.11,2.97,1.22c3.42,4.35,5.41,9.45,7.12,14.7c0.91-4.58-1.19-8.64-1.07-12.96c2.2-0.16,0.85,3.12,3.19,3.11
		c-0.54-5.74-3.07-10.68-5.5-15.65c0.38-0.48,0.76-0.96,1.13-1.44c6.37,9.07,7.93,19.71,9.8,30.29c0.75-5.53,2.88-10.98,0.37-16.51
		c0.35-1.01,1.08-1.11,1.81-0.55c3.5,2.71,6.89,2.07,10.28-0.19c0,1.76,0,3.52,0,6.1c-2.76-4.56-6.02-1.25-9.05-2.55
		c1.16,3.48,1.24,6.47,1.3,9.45c0.06,2.99,0.01,5.97,0.01,9.77c3.17-4.84,5.42-9.04,7.63-14.78c0.52,4.74-1.5,7.19-2.45,9.96
		c-5.02,7.38-5.03,13.26,0.2,20.11c0.58-2.73,1.1-5.22,1.63-7.7c1.69-3.27,3.38-6.54,5.07-9.81c0.25,0.21,0.5,0.42,0.75,0.63
		c-0.92,2.27-1.85,4.55-2.77,6.82c-1.97,3.89-3.59,7.87-3.21,13.66c2.4-5.21,4.29-9.3,6.17-13.38c5.54-4.04,7.75-10.38,11.01-15.99
		c0.44,0.43,0.88,0.85,1.32,1.28c-0.75,2.63,0.93,1.55,1.53,0.82c1.91-2.32,3.15-5.05,4.14-7.9c0.26-0.75,0.6-1.89,1.16-2.07
		c3.75-1.22,3.87-1.11,4.82-3.75c1.01-2.8,1.89-5.66,2.67-8.53c0.33-1.23,0.57-1.91,1.78-0.79c0.11,0.1,0.13,0.34,0.25,0.38
		c0.43,0.17,0.43,0.33-0.02,0.5c-0.12,0.05-0.41,0.01-0.41-0.02c-0.03-0.25-0.11-0.56,0-0.74c3.51-5.56,2.73-11.66,2.25-17.73
		c-0.09-1.09-1.24-2.95-0.07-3.12c4.02-0.57,1.53-2.88,1.45-4.44c-0.19-3.9-3.54-6.71-4.64-11.55c5.31,3.55,5.72,8.61,7.91,13.56
		c0.96-5.31,0.06-9.48-1.11-13.62c0.37-0.52,0.74-1.04,1.11-1.56c2.13,1.89,1.51-0.12,1.45-1.07c-0.17-2.66-2.49-4.82-2.03-8.12
		c3.74,2.25,3.02,7.64,6.03,8.84c5.41,2.16,2.47,6.36,3.31,9.51c0.66,2.46,0.08,5.26,0.05,7.9c-0.38,1.96-0.93,3.93,0.22,6.53
		c0.92-2.6,1.62-4.44,1.38-6.47c0.91-5.52,0.97-11.06,0.36-16.62c0.47-0.35,0.94-0.71,1.41-1.06c1.62,6.75-0.6,13.93,0.76,20.22
		c1.59,7.32-2.48,10.99-5.33,15.86c-0.82,1.39-1.52,2.85-2.28,4.28c-3.25,3.89-6.5,7.78-9.71,11.62c1.19,1.21,2.9-0.07,3.71,1.72
		c-3.91,3.22-7.79,6.31-11.54,9.55c-9.97,8.6-19.71,17.38-23.49,30.75c-0.44,1.55-1.52,2.85,0.89,3.95
		c5.05-15.33,16.32-25.26,28.97-34.19c4.66-3.29,9.01-5.33,14.54-2.88c-0.95,3.05-4.58,1.73-6.16,3.76
		c-13.9,4.16-28.18,17.41-32.02,29.68c1.66,0.28,1.84-2.97,3.93-1.77c0.34,2.16-2.23,3.19-1.88,5.7c3.57-3.66,6.86-7.17,10.93-9.77
		c0.59,1.39,0.13,3.36,3.22,2.46c1.91-0.55,3.22-1.78,4.95-2.36c-0.35,4.09,0.84,7.22,5.49,7.36c3.31,0.1,6.46-0.87,8.72-3.59
		c2.67-3.23,3.33-6.81,1.23-10.54c-2.07-3.69-6.89-4.93-12.8-3.52c-2.38-0.22-4.18,1.37-6.29,2.02c-0.28-0.37-0.56-0.73-0.84-1.1
		c5.17-4.6,11.7-6.94,17.49-10.51c4.6-1.75,9.37-3.16,13.76-5.33c7.75-3.82,15.05-8.4,17.7-17.43c2.76-9.38-3.65-17.62-12.57-16.56
		c-2.3,0.27-3.77,2.32-7.37,2.84c13.96-20.84,13.67-40.78-1.52-60.84c4.69,0.47,4.93,4.33,7.49,5.17c0.8-0.98-0.82-2.61,0.78-3.01
		c1.19-0.3,1.32,1.15,1.8,1.96c1.29,2.2,1.35,5.03,3.52,7.27c0.57-5.54-1.66-10.22-1.85-15.17c3.1-0.3,2.36-2.46,1.92-4.26
		c-5.23-21.65-16.08-39.97-32.67-54.87c-1.95-3.17-4.94-4.17-8.47-4.03c-0.07-0.29-0.3-0.68-0.2-0.86
		c5.11-8.36,3.64-15.51-4.16-21.25c-5.59-4.11-11.74-4.4-18.21-3.28c-1.31,0.21-2.65,0.29-3.92,0.64
		c-15.92,4.32-25.31,18.57-21.49,32.55c0.48,1.75,0.67,4.2,2.96,3.95c2.33-0.25,1.1-2.7,1.23-4.11
		c1.12-11.69,5.37-24.13,21.12-26.78c5.2-0.21,10.31-0.12,14.12,4.27c-4.4-0.59-8.45-3.46-13.17-1.99c-8.34,0-16.1,6.67-18.88,16.12
		c-1.57,5.32-1.49,10.74-1.15,16.18c-6.83-2.94-13.77-3.21-20.82-0.86c-14.68,4.03-22.34,16.52-19.18,31.18
		c0.88,4.09,2.42,7.93,4.15,11.72c0.42,0.93,2.02,2.12-0.14,3.02c-1.6-0.37-2.05-2.81-4.14-2.3c-0.44-0.53-0.44-1.06,0.01-1.59
		c0.16,0.05,0.31,0.13,0.47,0.13c0.11,0,0.32-0.11,0.31-0.16c-0.32-5.86-2.33-7.13-10.55-6.71c-3.76-0.63-7.21,0.41-10.39,2.24
		c-4.94,2.84-7.75,9.53-6.5,14.98c1.21,5.26,5.25,8.61,10.89,9.03c2.13,0.45,4.11-0.16,6.16-0.66c1.92-0.46,1.71,0.63,0.85,1.78
		c-3.91,1.02-7.98,1.85-11.67-0.15c-3.74-2.02-7.2-3.68-11.3-1.11c-0.75,0.47-0.95-0.6-1.33-1.06c0.73-0.39,1.41-0.94,2.19-1.15
		c4.93-1.33,2.82-4.65,1.9-7.32c-1.15-3.38-3.61-1.75-5.72-1.04c-3.88,2.86-6.27,10.17-3.35,11.86c3.8,2.21,1.27,3.3,0.21,4.9
		c-3.93,5.93-5.78,12.19-1.72,18.69c3.79,6.06,9.81,6.82,16.3,5.74c0.34,0.39,0.69,0.78,1.03,1.17c-3.05,0.5-3.83,2.45-3.72,5.3
		c0.29,7.23,6.86,11.2,14.26,8.69c1.21-0.41,2.3-2.82,4-0.71c-0.82,1.23-1.73,2.42-2.46,3.71c-3.35,5.87-2.14,14.13,2.62,18.28
		c4.58,3.99,14.74,3.93,20.57-0.13c4.8-3.34,5.58-8.13,2.52-15.52c2.72-0.11,3.46,3.18,5.95,3.47c0.13,2.75-3.06,5.79,0.73,8.22
		c-2.82,0.76-4.78,2.47-5.99,5.49c2.35,1.11,4.68,2.22,7.02,3.33c3.72,2.79,6.51,6.36,8.64,10.53
		C683.44,604.68,680.71,599.33,675.77,595.11z M688.99,635.2c-1.73,0.96-2.51-0.59-3.53-1.41c-0.12-0.1,0.24-0.79,0.37-1.21
		c0.29,0.12,0.82,0.25,0.82,0.37c0,0.42-0.18,1.21-0.31,1.22c-2.31,0.05-4.67-0.17-6.14,2.21c-1.53-3.13-0.65-5.24,2.48-6.47
		c2.73-1.07,5.61-0.26,8.48-0.52c-1.23-3.29-5.22-2.21-6.35-5.02c0.5,0.5,1.16,0.84,1.68,0.28c1.16-1.24-0.13-1.62-0.91-2.01
		c-4.75-2.39-9.69-2.34-14.7-0.98c-6.38,1.88-10.25,6.25-9.86,11.22c0.28,3.58,2.49,5.3,5.87,5.57c2.71,0.21,5.16-0.65,5.79-3.55
		c0.73-3.41-1.24-5.24-4.46-5.93c-0.39-0.08-1.09-0.04-0.88-0.68c1.01-2.31,3.42-2.68,4.95-4.13c3.62-0.07,7.24-0.13,10.86-0.2
		c0.99,2.36-1.09,1.58-2.03,2c-3.83,1.73-6.83,4.33-6.96,8.8c-0.12,4.02,1.84,6.93,5.99,7.95c6.73,0.63,8.38-0.83,8.67-7.69
		c1.3,4.6,5.63,5.23,10.14,7.99c-2.63-4.79-4.81-8.04-8.83-9.55C688.63,632.9,688.61,632.96,688.99,635.2z M643.99,488.9
		c-5.26,0.72-8.21,3.82-7.62,8.79c0.63,5.33,4.97,1.29,7.31,2.49c0.12,0.06,0.32-0.03,0.48-0.05c1.86,0.49,3.69,1.24,6.01,0.6
		c-0.83-2.56-1.51-5.11-1.2-7.68C649.49,488.88,647.74,487.76,643.99,488.9z M675.13,451.24c-2.14,0.11-3.61,1.43-4.89,2.9
		c-2.48,2.86-3.12,6.5-1.56,9.62c1.5,3,4.25-0.23,6.46-0.04c2.63-0.06,5.26-0.11,7.89-0.17c1.19,0.41,0.93-0.2,0.6-0.86
		c-0.3-1.78-0.71-3.54-0.88-5.33C682.09,450.35,682.12,450.35,675.13,451.24z M1182.01,594.19c-17.22,0.75-32.16-4.01-43.83-17.41
		c-11.51-13.21-15.57-28.5-12.6-45.48c5.89-33.68,48.33-57.5,81.52-33.26c1.7,1.24,3.27,3.15,5.24,0.24
		c2.03-2.99-1.09-3.53-2.3-4.35c-11.65-7.89-24.49-12.2-38.63-10.39c-34.25,4.4-56.59,35.35-50.39,69.31
		c5.17,28.3,32.88,49.16,61,45.93c26.12-2.2,46.47-22.19,47.74-52.11c0.14-3.33-1.87-2.83-3.82-2.83
		c-11.81,0.01-23.63-0.01-35.44,0.08c-1.36,0.01-3.51-1.04-3.62,1.9c-0.12,3.25,2.22,2.25,3.77,2.26
		c9.98,0.08,19.97,0.27,29.95-0.03c4.03-0.12,4.75,1.19,4.17,4.81C1221,576.03,1205.29,591.28,1182.01,594.19z M932.51,525.37
		c0,9.82-0.01,19.65,0,29.47c0.01,8.07,1.03,15.97,5.07,23.12c9.02,15.93,23.23,21.76,40.94,21.27
		c20.29-0.56,37.4-14.54,39.44-34.64c2.59-25.52,0.51-51.22,1.03-76.84c0.05-2.37-1.15-2.71-3.08-2.68
		c-4.99,0.08-10.01,0.33-14.98-0.05c-4.3-0.33-5.64,0.84-5.58,5.39c0.27,20.97,0.14,41.95,0.09,62.93
		c-0.01,2.99-0.07,6.02-0.57,8.96c-1.28,7.43-5.74,12.6-12.97,14.22c-7.25,1.63-14.61,1.66-20.55-4.4
		c-4.58-4.68-5.52-10.4-5.51-16.53c0.02-21.98-0.06-43.95,0.07-65.93c0.02-3.35-0.67-4.79-4.34-4.55c-4.97,0.33-10,0.34-14.97,0.02
		c-3.48-0.22-4.17,1.16-4.13,4.27C932.59,501.4,932.51,513.39,932.51,525.37z M877.2,599.23c7.28,0.16,13.85-1.8,20.51-4.78
		c10.42-4.65,17.09-12.05,19.08-23.08c2.07-11.51-1.48-21.34-10.83-28.82c-8.2-6.57-17.77-10.31-27.56-13.66
		c-4.09-1.4-8.02-3.06-11.69-5.5c-5.76-3.83-5.1-16.16,2.56-18.32c7.65-2.16,14.32-1.18,20.7,3.58c2.96,2.21,4.2,7.47,8.22,6.9
		c3.51-0.49,6.67-3.53,9.98-5.44c1.01-0.58,1.95-1.33,3.03-1.73c3.18-1.17,2.87-2.8,1.15-5.19c-6.94-9.59-15.3-16.27-27.58-18.65
		c-11.53-2.23-21.73-0.73-31.37,5.34c-18.2,11.46-18.56,37.4-0.76,49.58c4.81,3.29,9.99,5.94,15.6,7.69
		c5.55,1.73,11.1,3.55,16.26,6.29c6.58,3.5,9.51,8.96,8.25,14.97c-1.17,5.57-6.23,9.16-13.6,9.59c-10.35,0.6-18.47-3.26-23.63-12.4
		c-1.51-2.67-2.81-3.13-5.4-1.54c-3.4,2.08-6.89,4.1-10.56,5.62c-3.66,1.51-3.66,3.4-1.97,6.47
		C846.2,591.82,859.64,599.05,877.2,599.23z M1114.61,597.41c-1.19-1.68-2.1-3.04-3.08-4.33c-8.88-11.65-17.67-23.36-26.72-34.88
		c-2.55-3.25-3.14-4.49,1.68-5.92c15.96-4.75,24.62-18.22,23.5-35.58c-1.02-15.81-11.93-28.1-27.84-30.75
		c-14.04-2.34-28.25-0.58-42.37-1.05c-2.9-0.1-2.58,1.79-2.58,3.63c0.01,35.13,0,70.26,0.02,105.39c0,1.72-0.58,3.9,2.44,3.83
		c3.12-0.08,2.16-2.43,2.17-4.01c0.07-11.49,0.22-22.98-0.06-34.46c-0.1-4.08,1.3-5.03,5.09-4.91c8.15,0.27,16.33,0.43,24.47-0.01
		c4.1-0.22,6.31,1.32,8.56,4.39c8.87,12.06,18.06,23.9,26.95,35.95C1108.77,597.32,1110.78,598.56,1114.61,597.41z M1246.64,541.5
		c0,17.33,0.09,34.66-0.08,51.98c-0.03,3.46,0.86,4.48,4.41,4.45c18.33-0.17,36.65-0.04,54.98-0.06c1.78,0,4.14,0.92,4.11-2.57
		c-0.03-3.65-2.6-2.31-4.21-2.32c-16.83-0.07-33.66-0.11-50.48,0.05c-3.19,0.03-4.29-0.69-4.24-4.08c0.19-13.66,0.19-27.32,0-40.98
		c-0.05-3.45,0.86-4.57,4.41-4.5c12.49,0.22,24.99,0.14,37.49,0.09c1.58-0.01,3.82,0.93,3.97-2.2c0.17-3.5-2.3-2.56-4.06-2.56
		c-12.16-0.04-24.33-0.17-36.49,0.1c-4,0.09-5.45-0.78-5.35-5.1c0.3-12.99,0.26-25.99,0.01-38.98c-0.08-4.01,0.78-5.43,5.11-5.36
		c15.99,0.29,31.99,0.18,47.98,0.12c1.5-0.01,3.8,1.14,3.89-2.18c0.1-3.47-2.22-2.6-4-2.6c-17.66-0.02-35.32,0.15-52.98-0.08
		c-3.97-0.05-4.58,1.29-4.54,4.81C1246.73,506.84,1246.64,524.17,1246.64,541.5z M669.2,619.18c5.09,0.55,8.83-0.64,12.47,0.41
		c0.99,0.29,2.79,1.37,2.97-0.86c0.15-1.86-0.77-2.91-3.01-2.83C677.69,616.03,673.85,616.28,669.2,619.18z"/>
	<path class="st0" d="M932.51,525.37c0-11.99,0.08-23.98-0.05-35.96c-0.04-3.11,0.65-4.49,4.13-4.27c4.97,0.31,10,0.3,14.97-0.02
		c3.68-0.24,4.36,1.2,4.34,4.55c-0.13,21.98-0.05,43.95-0.07,65.93c0,6.14,0.93,11.85,5.51,16.53c5.94,6.06,13.3,6.03,20.55,4.4
		c7.23-1.62,11.69-6.8,12.97-14.22c0.51-2.93,0.57-5.97,0.57-8.96c0.05-20.98,0.18-41.96-0.09-62.93c-0.06-4.55,1.28-5.72,5.58-5.39
		c4.97,0.38,9.98,0.12,14.98,0.05c1.94-0.03,3.13,0.31,3.08,2.68c-0.52,25.62,1.57,51.32-1.03,76.84
		c-2.04,20.1-19.15,34.08-39.44,34.64c-17.71,0.49-31.92-5.34-40.94-21.27c-4.05-7.15-5.06-15.05-5.07-23.12
		C932.49,545.02,932.51,535.2,932.51,525.37z"/>
	<path class="st1" d="M877.2,599.23c-17.56-0.18-31-7.41-39.62-23.07c-1.69-3.07-1.69-4.96,1.97-6.47
		c3.67-1.52,7.16-3.53,10.56-5.62c2.59-1.59,3.89-1.13,5.4,1.54c5.16,9.14,13.28,13,23.63,12.4c7.37-0.43,12.44-4.02,13.6-9.59
		c1.26-6.01-1.67-11.47-8.25-14.97c-5.16-2.74-10.7-4.56-16.26-6.29c-5.62-1.75-10.79-4.4-15.6-7.69
		c-17.8-12.17-17.45-38.11,0.76-49.58c9.64-6.07,19.84-7.57,31.37-5.34c12.28,2.38,20.64,9.06,27.58,18.65
		c1.73,2.39,2.04,4.01-1.15,5.19c-1.08,0.4-2.02,1.15-3.03,1.73c-3.31,1.92-6.47,4.95-9.98,5.44c-4.02,0.56-5.26-4.69-8.22-6.9
		c-6.39-4.77-13.05-5.75-20.7-3.58c-7.65,2.16-8.31,14.49-2.56,18.32c3.66,2.44,7.6,4.1,11.69,5.5c9.79,3.35,19.35,7.09,27.56,13.66
		c9.35,7.48,12.9,17.31,10.83,28.82c-1.98,11.03-8.65,18.42-19.08,23.08C891.05,597.42,884.48,599.39,877.2,599.23z"/>
	<path class="st0" d="M757.29,549.46c0.61,5.56,0.55,11.1-0.35,16.62c-0.53-0.02-1.06-0.04-1.6-0.06c0.03-2.65,0.6-5.44-0.05-7.9
		c-0.84-3.15,2.1-7.35-3.31-9.51c-3.02-1.2-2.29-6.59-6.03-8.84c-0.46,3.29,1.86,5.46,2.03,8.12c0.06,0.95,0.68,2.96-1.45,1.07
		c-0.38-0.2-0.95-0.68-1.09-0.57c-0.84,0.64-0.33,1.41-0.02,2.13c1.17,4.14,2.07,8.31,1.11,13.62c-2.19-4.95-2.6-10.01-7.91-13.56
		c1.1,4.84,4.45,7.65,4.64,11.55c0.08,1.56,2.57,3.88-1.45,4.44c-1.17,0.17-0.02,2.03,0.07,3.12c0.48,6.06,1.26,12.16-2.25,17.73
		c-0.11,0.18-0.03,0.5,0,0.74c0,0.03,0.29,0.07,0.41,0.02c0.46-0.18,0.45-0.34,0.02-0.5c-0.11-0.04-0.14-0.28-0.25-0.38
		c-1.21-1.12-1.45-0.44-1.78,0.79c-0.78,2.87-1.66,5.73-2.67,8.53c-0.95,2.64-1.07,2.53-4.82,3.75c-0.56,0.18-0.9,1.31-1.16,2.07
		c-0.99,2.85-2.22,5.58-4.14,7.9c-0.6,0.73-2.28,1.81-1.53-0.82c0.33-1,0.66-2,0.99-3c0.21-1.34,1.52-2.6,0.38-4.09
		c-1.55,0.41-1.39,1.74-1.7,2.78c-0.33,1.01-0.66,2.03-0.98,3.04c-3.26,5.61-5.47,11.95-11.01,15.99c-0.98-0.09-1.97-0.18-2.95-0.27
		c0.92-2.27,1.85-4.55,2.77-6.82c4.7-8.6,9.65-17.16,4.7-27.36c1.46,6.38,1.05,12.64-1.71,18.68c-1.23,2.69-2.49,5.37-3.74,8.06
		c-1.69,3.27-3.38,6.54-5.07,9.81c-1.24-4.04,1.14-8.62-1.83-12.41c0.95-2.77,2.97-5.22,2.45-9.96c-2.21,5.74-4.46,9.93-7.63,14.78
		c0-3.8,0.05-6.79-0.01-9.77c-0.06-2.98-0.14-5.97-1.3-9.45c3.03,1.3,6.29-2.01,9.05,2.55c0-2.57,0-4.34,0-6.1
		c0,0-0.09,0.17-0.09,0.17c3.39-2.04,3.72-3.42,1.9-7.97c-0.9-1.62,2-3.02,0.28-4.69c0.65-2.08-1.47-1.22-2.08-1.96
		c0.01-1.36,0.02-2.73,0.03-4.09c2.98-0.43,5.51,1.2,8.27,1.8c0.41,0.29,0.82,0.64,1.17-0.07c0.7,0.93,1.38,0.77,2.05-0.03
		c-1.02,0.76-1.02,1.29,0.34,1.53c0.66,1.2,0.81,2.82,2.55,3.14c0.13,0.31,0.35,0.54,0.66,0.68c0.42,0.72,0.83,1.44,1.25,2.16
		c0.31,0.63,0.62,1.26,0.93,1.89c0.37,1.33,0.74,2.66,1.11,3.98c0,2.97,0,5.95,0,8.92c2.72-3.31,1.79-6.71,1.28-10.09
		c-0.4-1.24-0.79-2.49-1.19-3.73c-0.35-0.67-0.7-1.34-1.05-2c-0.42-0.59-0.84-1.18-1.25-1.77c-0.25-0.41-0.5-0.83-0.75-1.24
		c-0.2-0.43-0.4-0.87-0.6-1.3c0.44-1.91-0.61-4.44,2.25-5.33c3.23,1.65,4.03,5.25,6.22,7.74c0.58,0.9,0.02,2.73,2.09,2.51
		c0.52-1.41-0.38-2.5-0.79-3.69c-0.23-0.81-0.45-1.62-0.68-2.42c0.57-4.05-1.28-8.35,1.24-12.21c4.61,2.67,5.76,7.55,7.79,13.06
		c0.52-6.24-2.23-10.06-5.05-13.85c-0.7-3.47,0.98-7.13-0.85-10.51c1.52-0.41,1.16-1.21,0.33-1.96c-1.81-1.63-4.19-1.47-6.37-1.93
		c-1.7-2.31-1.18-4.93-1.02-7.49c3.95,0.36,6.91,3.25,10.71,4.08c-3.75-5.61-9.56-6.83-15.71-7.33c0.02-2.17,0.05-4.35,0.07-6.52
		c3.87-0.91,7.52,1.52,12.34,0.99c-5.29-3.54-10.31-3.45-15.38-3.15c0.01-2.28,0.03-4.56,0.04-6.84c4.38-0.77,8.42,1.89,13.73,1.58
		c-3.26-3.13-6.69-2.71-9.75-3.34c-0.55-1.1-1.35-2.13-1.02-3.49c3.03-0.47,5.42,2.31,8.49,1.67c1.3,0.2,2.95,2.2,3.73,0.43
		c0.71-1.61-1.97-0.84-2.69-1.82c-7.96-2.96-16.2-3.36-24.55-2.56c0.02-1.47,0.05-2.94,0.07-4.41c7.23-1.14,14.38-0.43,21.49,0.99
		c0.97,0.4,1.93,0.79,2.9,1.19c0.6,0.64,1.24,1.13,2.19,0.74c0.71,1.95,2.25,2.38,4.08,2.11c0.29-0.04,0.78-0.77,0.7-0.91
		c-0.76-1.32-2.21-1.64-3.48-2.23c-0.14-0.07-0.31-0.09-0.46-0.13c-0.59-0.28-1.18-0.57-1.77-0.86c-0.94-0.36-1.88-0.72-2.82-1.07
		c-0.68-0.35-1.35-0.7-2.03-1.05c-0.01-2.37,0.34-4.68,1.19-6.9c3.94,1.91,7.89,3.83,11.83,5.74c0,0,0.04,0.03,0.04,0.03
		c3.5,4.86,9.21,7.38,12.81,12.13c2.56,5.58,7.13,10.09,8.7,16.2c0.29,1.02,0.59,2.03,0.88,3.05c0.36,1.66,0.72,3.32,1.09,4.98
		c0.69,3.69,0.37,7.39,0.08,11.09c-0.41,1.65-0.81,3.3-1.22,4.95c-0.34,1-0.68,2-1.02,3c-0.17,1.3-2.28,2.89-0.6,3.7
		c1.47,0.71,1.27-1.72,1.9-2.69c0.32-1.02,0.64-2.04,0.97-3.05c0.39-1.58,0.78-3.15,1.17-4.73c0.9-4.46,1.1-8.92-0.01-13.38
		c-0.35-1.65-0.7-3.29-1.05-4.94c-0.3-0.97-0.6-1.93-0.91-2.9c-1.98-5.99-4.8-11.51-9.04-16.24c-1.85-3.04-4.59-5.29-6.98-7.85
		c1.46-2.49,1.15-5.29,1.38-7.99c0.85,0.27,2.37,0.76,1.93-0.6c-0.43-1.33-1.56-3.48-3.93-1.99l0.07,0.08
		c-0.43-4.29-4.64-4.15-7.1-6.07c0-1.13,0.01-2.26,0.01-3.39c5.98,2.95,11.3,6.93,16.71,10.76c0.52,0.5,1.03,1,1.55,1.49
		c4.1,4.17,8.12,8.41,11.52,13.32c-1.83-6.79-4.93-12.75-9.39-18.03c-0.49,0.84-0.5,1.47-0.48,2.1c0.03,0.81,0.21,1.68-0.96,1.86
		c-0.43-0.53-0.86-1.06-1.3-1.58c-5.63-5.83-12.88-9.32-19.65-13.49c1.51-2.81,0.12-6.29,2.09-8.98c1.24,0.52,2.03,2.43,3.82,1.24
		l-0.12-0.12c-0.68,1.42,0.04,1.44,1.11,1.12l-0.11-0.1c2.45,3.73,4.18,8.15,9.04,9.61c-0.82,1.25-0.31,1.81,1.01,1.97
		c0.28,1.06,0.01,2.88,2.07,1.54l-0.14-0.13c-0.54,2.64,0.35,3.68,2.66,3.12c-0.02,0.45-0.22,0.98,0.52,1.05
		c0.13,0.01,0.32-0.02,0.4-0.1c1.91-2.01,1.16-4.71,1.82-7.05c2.15,1.14,1.32,5.16,4.82,5l-0.08-0.11
		c0.96,5.98,4.57,10.81,7.01,16.14l-0.1-0.05c0.18,4.94,2.42,9.63,1.85,15.17c-2.17-2.24-2.23-5.08-3.52-7.27
		c-0.48-0.82-0.61-2.26-1.8-1.96c-1.6,0.41,0.02,2.04-0.78,3.01c-2.56-0.83-2.8-4.7-7.49-5.17c15.19,20.06,15.48,40,1.52,60.84
		c3.61-0.52,5.08-2.57,7.37-2.84c8.91-1.06,15.32,7.18,12.57,16.56c-2.65,9.03-9.95,13.61-17.7,17.43
		c-4.4,2.17-9.16,3.58-13.76,5.33c-1.7-0.84-2.34-2.23-2.13-4.07c1.58-2.03,5.2-0.71,6.16-3.76c0,0-0.15-0.13-0.15-0.13
		c1.61,1.44,2.3,0.17,3.02-1.03l0.01,0c1.2,0.71,1.91,0.44,2.03-1.01l-0.04,0.03c1.29,0.87,1.87,0.33,2.04-1.03l0.03-0.01
		c6.77-1.76,11.19-6.01,13.22-12.68c0.66-2.18,0.4-4.23-1.64-5.7c-2.23-2.33-5.32-0.14-7.74-1.47c-1.87-1.32-0.85-3.95-2.32-5.82
		c-2.79,3-5.36,5.7-7.83,8.48c-0.74,0.83-1.43,2.13-0.38,3.02c1.25,1.06,1.99-0.25,2.69-1.13c1.71-2.17,3.05-4.99,6.67-3.62
		c0.1,1.82,0.21,3.63,0.36,6.28c2.48-2.62,4.22-5.34,7.7-4.32c2.6,3.67,0.23,6.38-1.7,9.25c-2.01,2.98-5.75,3.48-8.14,5.87
		c-0.36-1.78-0.73-3.56-1.09-5.33c0.82-1.19,1.63-2.37,2.45-3.56c0.59-0.56,1.11-1.17,0.42-1.94c-0.11-0.12-0.73,0.23-1.12,0.37
		c-2.73,2.69-5.46,5.38-8.18,8.07c-0.62-0.25-0.86-0.09-0.63,0.58c-2.74-0.5-3.45,1.59-4.35,3.43c-4.47-1.2-4.92-2.8-1.28-6.08
		c3.53-3.18,7.26-6.05,2.58-11.03c0.76-1.43,1.46-2.89,2.28-4.28c2.86-4.88,6.92-8.55,5.33-15.86c-1.36-6.29,0.85-13.47-0.76-20.22
		c-0.41-1.58-0.82-3.16-1.23-4.74c-0.31-1.02-0.63-2.04-0.94-3.06c-0.26-0.69-0.51-1.38-0.77-2.08c-0.86-1.93-1.18-4.23-4.12-4.89
		c1,1.9,1.99,3.8,2.99,5.71c0.24,0.72,0.49,1.45,0.73,2.17c0.3,0.99,0.6,1.97,0.91,2.96C756.61,546.12,756.95,547.79,757.29,549.46z
		 M737.52,558.16c-0.38-0.49-0.96-1.11-1.45-0.6c-0.83,0.86,0.12,1.26,0.74,1.66c0.31,0.36,0.62,0.72,0.93,1.08
		c0.24,0.4,0.48,0.8,0.72,1.2c0.39,0.54,0.78,1.08,1.16,1.62c0.4,0.49,0.87,0.96,1.32,0.13c0.38-0.69-0.17-1.12-0.69-1.48
		c-0.24-0.45-0.47-0.89-0.71-1.34c-0.33-0.41-0.66-0.83-0.99-1.24C738.22,558.85,737.87,558.5,737.52,558.16z M758.36,514.9
		c0.47,2.69,1.95,4.52,5.32,6.06C762.51,517.54,760.72,515.99,758.36,514.9z M709.14,582.96c0.92,3.24,2.39,4.02,5.58,4.52
		C712.99,584.61,711.66,583.69,709.14,582.96z M733.28,536.51c0.58,2.2,1.46,3.33,3.48,2.98c0.62-0.11,0.78-0.56,0.57-0.97
		C736.58,536.98,735.35,536.25,733.28,536.51z M740,540.38c-0.93-1.19-1.67-2.29-3.17-2.2c-0.17,0.01-0.74,0.5-0.38,1.17
		C737.16,540.66,737.94,541.46,740,540.38z M731.27,586.7c-0.78,1.93-0.28,3.38,0.47,5.38C732.59,589.92,732.45,588.43,731.27,586.7
		z M738.49,525.86c0.61,1.82,1.52,3.25,3.53,3.19c0.21-0.01,0.64-0.58,0.58-0.71C741.82,526.64,740.36,525.94,738.49,525.86z
		 M745.86,532.41c0.13,1.84,0.77,3.32,2.45,4.11c0.12,0.06,0.69-0.37,0.7-0.59C749.1,533.94,747.74,532.98,745.86,532.41z
		 M752.91,509.1c-0.5-1.37-1.42-2.03-2.57-2.25c-0.22-0.04-1.13,0.59-0.65,1.44c0.48,0.84,0.86,1.83,2.06,1.68
		C752.27,509.9,753.02,509.8,752.91,509.1z M731.6,597.86c0.5-1.26,1.06-2.31-0.07-3.71C731.13,595.43,730.56,596.48,731.6,597.86z
		 M733.51,523.61c1.07,0.91,1.92,2.6,4.02,1.72C736.53,523.67,735.39,522.91,733.51,523.61z M744.48,545.79
		c-0.45,0.38-0.75,0.63-1.04,0.89c0.2,0.22,0.36,0.56,0.6,0.64c0.37,0.12,0.99,0.46,1.07-0.29
		C745.15,546.71,744.78,546.35,744.48,545.79z M752.76,546.56c0.29-0.7,0.66-1.16,0.56-1.43c-0.2-0.51-0.68-0.91-1.05-1.35
		c-0.23,0.33-1.03,0.34-0.61,1.04C751.95,545.31,752.27,545.78,752.76,546.56z M752.57,532.67c-0.41-0.65-0.74-1.22-1.15-1.71
		c-0.05-0.05-0.96,0.5-0.94,0.55c0.25,0.59,0.56,1.18,0.97,1.68C751.5,533.26,752.12,532.88,752.57,532.67z M714.42,587.51
		c-0.1,0.31-0.41,0.76-0.3,1.05c0.15,0.38,0.58,0.75,0.97,0.93c0.77,0.36,0.78-0.43,0.76-0.77
		C715.82,588.03,715.42,587.52,714.42,587.51z M735.67,531.77c0.12-0.12,0.24-0.23,0.36-0.34c-0.12-0.11-0.24-0.23-0.36-0.34
		c-0.11,0.18-0.23,0.35-0.34,0.53C735.45,531.67,735.57,531.73,735.67,531.77z M737.43,520.17c-0.06,0.11-0.2,0.26-0.17,0.33
		c0.2,0.48,0.45,0.48,0.68,0.02c0.03-0.07-0.07-0.26-0.16-0.33C737.69,520.14,737.54,520.18,737.43,520.17z M739.43,521.18
		c-0.06,0.12-0.2,0.26-0.17,0.34c0.2,0.48,0.46,0.49,0.68,0.01c0.03-0.08-0.07-0.27-0.17-0.34
		C739.7,521.14,739.54,521.18,739.43,521.18z M733.87,530.28c-0.12-0.06-0.26-0.21-0.34-0.18c-0.5,0.18-0.51,0.44-0.03,0.67
		c0.08,0.04,0.27-0.06,0.35-0.15C733.9,530.55,733.86,530.39,733.87,530.28z"/>
	<path class="st1" d="M1114.61,597.41c-3.82,1.15-5.84-0.09-7.77-2.71c-8.89-12.05-18.08-23.89-26.95-35.95
		c-2.26-3.07-4.47-4.61-8.56-4.39c-8.13,0.44-16.32,0.27-24.47,0.01c-3.79-0.12-5.19,0.82-5.09,4.91
		c0.28,11.48,0.13,22.97,0.06,34.46c-0.01,1.59,0.95,3.93-2.17,4.01c-3.01,0.08-2.44-2.11-2.44-3.83
		c-0.02-35.13-0.01-70.26-0.02-105.39c0-1.84-0.31-3.73,2.58-3.63c14.12,0.47,28.33-1.29,42.37,1.05
		c15.91,2.65,26.83,14.94,27.84,30.75c1.12,17.36-7.54,30.83-23.5,35.58c-4.83,1.44-4.23,2.67-1.68,5.92
		c9.05,11.52,17.84,23.23,26.72,34.88C1112.51,594.37,1113.42,595.73,1114.61,597.41z M1041.87,519.59c0,8.82,0.01,17.65-0.01,26.47
		c0,2.07-0.2,3.96,2.94,3.86c11.63-0.39,23.31,0.72,34.91-0.91c15.14-2.13,24.95-12.82,25.71-27.87
		c0.79-15.59-7.66-27.1-23.08-30.34c-12.64-2.66-25.54-0.98-38.33-1.28c-2.67-0.06-2.12,2.06-2.12,3.6
		C1041.85,501.94,1041.87,510.77,1041.87,519.59z"/>
	<path class="st0" d="M1246.64,541.5c0-17.33,0.09-34.66-0.08-51.98c-0.03-3.52,0.57-4.86,4.54-4.81
		c17.66,0.23,35.32,0.06,52.98,0.08c1.78,0,4.1-0.87,4,2.6c-0.09,3.32-2.39,2.18-3.89,2.18c-15.99,0.06-31.99,0.17-47.98-0.12
		c-4.33-0.08-5.18,1.35-5.11,5.36c0.25,12.99,0.28,25.99-0.01,38.98c-0.1,4.32,1.35,5.19,5.35,5.1c12.16-0.26,24.32-0.14,36.49-0.1
		c1.76,0.01,4.22-0.93,4.06,2.56c-0.15,3.13-2.39,2.2-3.97,2.2c-12.5,0.05-24.99,0.13-37.49-0.09c-3.55-0.06-4.46,1.05-4.41,4.5
		c0.19,13.66,0.19,27.33,0,40.98c-0.05,3.39,1.05,4.11,4.24,4.08c16.83-0.16,33.66-0.13,50.48-0.05c1.61,0.01,4.18-1.33,4.21,2.32
		c0.03,3.49-2.33,2.57-4.11,2.57c-18.33,0.02-36.66-0.11-54.98,0.06c-3.54,0.03-4.44-1-4.41-4.45
		C1246.73,576.16,1246.64,558.83,1246.64,541.5z"/>
	<path class="st1" d="M1182.01,598.78c-28.12,3.23-55.83-17.63-61-45.93c-6.21-33.97,16.13-64.92,50.39-69.31
		c14.14-1.82,26.98,2.5,38.63,10.39c1.21,0.82,4.33,1.36,2.3,4.35c-1.98,2.91-3.55,1-5.24-0.24c-33.18-24.24-75.62-0.42-81.52,33.26
		c-2.97,16.98,1.09,32.27,12.6,45.48c11.68,13.4,26.62,18.17,43.83,17.41C1182.01,595.72,1182.01,597.25,1182.01,598.78z"/>
	<path class="st1" d="M618.81,527.8c0.37,0.46,0.58,1.53,1.33,1.06c4.1-2.58,7.56-0.91,11.3,1.11c3.7,2,7.76,1.17,11.67,0.15
		c0.3,0.29,0.6,0.58,0.9,0.88c-0.08,0.21-0.16,0.43-0.23,0.64c-1.01,0.26-2.15,0.22-2.85,1.21c-0.69,0.31-1.38,0.62-2.07,0.93
		c-0.67,0.33-1.35,0.65-2.02,0.98c-0.43,0.19-0.86,0.37-1.29,0.56c-0.64,0.4-1.29,0.8-1.93,1.2c-0.46,0.31-0.92,0.62-1.38,0.93
		c-0.32,0.1-0.55,0.3-0.68,0.62c-2.41,0.81-4.82,1.61-7.23,2.42c8.98,0.81,12.3,5.88,10.4,15.99c2.46-2.95,3.69-4.42,4.92-5.9
		c0.32-0.3,0.64-0.6,0.97-0.9c0.5-0.54,1.01-1.08,1.51-1.63c1.32-0.65,2.65-1.31,3.97-1.96c-0.15,1.99-0.14,3.91,2.04,4.94
		c-0.05,0.29-0.1,0.58-0.15,0.87c-0.35,0.31-0.71,0.63-1.06,0.94c-0.34,0.33-0.67,0.66-1.01,0.99c-0.3,0.37-0.6,0.74-0.9,1.11
		c-0.42,0.59-0.85,1.19-1.27,1.78c-1.33,1.65-2.67,3.31-4,4.96c-0.65,0.67-0.75,1.4-0.26,2.2c0.42-0.42,0.83-0.84,1.25-1.26
		c1.5-1.22,2.98-0.99,4.47,0.03c1.75,3.15,0.63,6.25-0.17,9.35l0.06-0.08c-1.27,0.26-2.34,0.62-1.02,2.12l0.13-0.13
		c-1.71-2.12-2.79,0.3-4,0.71c-7.4,2.51-13.98-1.46-14.26-8.69c-0.11-2.85,0.67-4.8,3.72-5.3c0.64-0.31,1.28-0.62,1.92-0.92
		c0.83-0.77,3.04-0.99,1.85-2.57c-0.6-0.8-1.8,0.82-2.62,1.54c-0.73,0.26-1.46,0.53-2.19,0.79c-6.49,1.08-12.52,0.32-16.3-5.74
		c-4.06-6.5-2.2-12.76,1.72-18.69c1.06-1.6,3.59-2.69-0.21-4.9c-2.92-1.7-0.53-9.01,3.35-11.86
		C618.07,521.4,615.22,525.15,618.81,527.8z"/>
	<path class="st1" d="M739.11,495.47c0,1.13-0.01,2.26-0.01,3.38c-2.85-1.47-5.7-2.95-8.56-4.42c-0.47-0.18-0.93-0.36-1.4-0.54
		c-0.47-0.84-1.11-1.25-2.09-0.9c0.18-0.89-0.48-0.88-1.04-0.97c-1.46-1.38-2.62-3.25-5.04-3.04l0.09,0.1
		c0.44-1.83-0.67-2.13-2.1-2.12c0,0,0.12,0.11,0.12,0.11c-0.57-3.05-3.34-4.82-4.45-7.55c-1.32-3.57-0.19-7.33-0.86-10.98
		c-2.6,3.9-2.48,7.88-0.49,11.95c0.14,0.64,0.29,1.27,0.43,1.91c-3.59,0.8-7.15,1.77-10.77,2.29c-0.91,0.13-0.79-1.6-0.94-2.54
		c-0.81-5.37-0.26-10.58,1.81-15.62c0.82-1.44,1.64-2.89,2.45-4.33c0.73-0.38,1.7-1.27,1.27-1.72c-1.1-1.15-1.46,0.41-2.08,0.96
		c-0.97,1.36-1.95,2.73-2.92,4.09c-2.46,2.09-1.78,6.47-5.54,7.61l-0.05-0.05c0.88-1.31,0.6-2.02-1.04-2.03c0,0,0.05,0.07,0.05,0.07
		c0.63-10.05,2.68-19.33,13.13-24.01c0.25,3.03-1.15,6.27,1.15,9.03c-0.37,1.25-2.34,1.67-2.06,3.98c1.34-0.97,2.2-1.67,3.13-2.26
		c4.4-2.83,8.55-5.73,14.43-3.09c2.48,1.12,6.06,1.04,8.26-1.94l-0.27,0.02c3.53-0.15,6.52,0.86,8.47,4.03
		c-1.87,1.8-1.03,4.14-1.24,6.27c-0.73-0.36-1.46-0.72-2.2-1.08c-0.67-0.71-1.61-1.77-2.37-0.7c-0.85,1.19,0.69,1.4,1.44,1.84
		c1.46,0.83,1.82,3.44,4.29,2.67l0.06,0.07c-1.64,1.12,0.03,1.97,0.35,2.78c1.56,4.07,0.1,7.12-3.07,9.58
		c-2.54,1.96-5.29,1.98-7.74-0.08c-3.06-2.57-3.48-5.4-0.45-8.48c1.44-1.46-0.33-2.07-1.19-2.45c-3.09-1.37-5.8-0.7-7.98,1.95
		c-3.22,3.91-2.85,9.4,0.97,13.86l-0.06-0.12c0.47,2.15,1.89,3.57,3.5,4.96C730.28,491.2,735.06,492.72,739.11,495.47z
		 M736.17,461.55c-7.16-4.72-18.45-2.37-19.75,4.38C722.39,460.59,728.87,459.42,736.17,461.55z"/>
	<path class="st1" d="M656,513.36c2.16-0.89,0.56-2.09,0.14-3.02c-1.73-3.79-3.26-7.63-4.15-11.72
		c-3.16-14.66,4.5-27.15,19.18-31.18c-0.01,1.41-0.01,2.82-0.02,4.22c-3.89,2.66-8.08,4.68-11.24,8.58
		c-6.49,7.99-3.93,23.7,1.85,27.11c-6.33-20.07-2.38-30.67,12.98-34.81c0.12,3.05,0.25,6.09,0.37,9.14
		c-11.04-0.1-14.71,17.33-7.82,26.68c-0.7-3.17-1.59-5.71-1.75-8.29c-0.41-6.29,0.1-12.36,6.56-15.88c0.3,3.34-1.26,6.91,1.18,10
		c-2.08,7.02-2.55,13.82,2.76,19.82c-0.02,0.63-0.03,1.27-0.05,1.9c-4.12-2.61-9.21-3.46-12.76-7.1c-0.33-0.66-0.69-1.54-1.57-0.84
		c-0.55,0.43-0.07,1.05,0.37,1.47c2.4,6.01,7.39,9.74,12.21,13.55c1.75,1.39,2.43,2.14,0.57,4.11c-2.16,2.28-3.73,3.2-6,0.2
		c-1.37-1.81-3.22-3.26-4.86-4.87c-0.78,1.08-1.3,1.01-1.54-0.34c-0.67-4.07-3.22-6.98-6.01-9.75c-0.14,0.27-0.28,0.53-0.42,0.8
		C655.97,513.15,656,513.36,656,513.36z M669.19,510.87c-0.02-0.02-0.31-0.4-0.6-0.78c-0.25,0.31-1.08,0.25-0.65,0.98
		c0.24,0.41,0.55,0.77,0.82,1.16C668.98,511.92,669.85,512.05,669.19,510.87z"/>
	<path class="st1" d="M667.47,580.28c3.03,7.39,2.25,12.18-2.55,15.52c-5.82,4.05-15.99,4.12-20.57,0.13
		c-4.76-4.15-5.97-12.42-2.62-18.28c0.73-1.28,1.63-2.47,2.46-3.71c0,0-0.13,0.13-0.13,0.13c0.7-0.53,2.03-0.77,1.02-2.12
		c0,0-0.06,0.08-0.06,0.08c2.55,0.29,3.2-2.17,4.78-3.29c0.58-0.37,1.16-0.75,1.75-1.12c0.64-0.39,1.27-0.78,1.91-1.17
		c0.66-0.34,1.33-0.67,1.99-1.01c0.7-0.24,1.39-0.48,2.09-0.72c2.52-0.36,5.01-1.27,7.6-0.49c0,1.76,0,3.51,0,5.27
		c-8.43-0.05-15.28,2.59-18.37,11.2c-0.97,2.72-1.72,5.64,1.06,8.25c0.38-14.03,7.75-19.84,20.28-16.26
		C667.63,575.18,668.66,577.82,667.47,580.28z M648.62,590.08c-0.1,0.09-0.28,0.17-0.29,0.27c-0.01,0.1,0.14,0.22,0.22,0.33
		c0.1-0.09,0.28-0.17,0.29-0.27C648.85,590.31,648.7,590.2,648.62,590.08z"/>
	<path class="st0" d="M1182.01,598.78c0-1.53,0-3.06,0-4.58c23.28-2.91,38.98-18.16,42.74-41.32c0.59-3.63-0.14-4.93-4.17-4.81
		c-9.97,0.3-19.96,0.11-29.95,0.03c-1.55-0.01-3.89,0.99-3.77-2.26c0.11-2.95,2.26-1.89,3.62-1.9c11.81-0.09,23.63-0.08,35.44-0.08
		c1.95,0,3.96-0.5,3.82,2.83C1228.49,576.59,1208.14,596.58,1182.01,598.78z"/>
	<path class="st0" d="M665.12,569.48c0-1.76,0-3.51,0-5.27c0.66,0.06,1.33,0.05,1.98,0.18c9.64,1.82,15.46,8.93,21.57,15.63
		c0.81,0.38,0.86,1.95,2.24,1.43c-0.46,1.58,0.95,9.92,1.96,11.57l0.01,0c-1.59,1.78,0.48,2.42,1.09,3.52l0.04,0.13
		c2.51,5.53,0.39,10.98-0.37,16.51c-1.87-10.58-3.43-21.22-9.8-30.29c-0.61-1.42-1.25-2.78-3.41-2.86c0.09,0.83,0,1.34,0.21,1.66
		c0.63,0.93,1.37,1.77,2.07,2.65c2.44,4.97,4.96,9.91,5.5,15.65c-2.34,0.02-0.99-3.26-3.19-3.11c0,0,0.04,0.11,0.04,0.11
		c0.34-3.38-2.12-5.29-3.93-7.55c-0.04-0.97-0.54-1.48-1.51-1.52c-0.94-1.14-1.99-2.12-3.48-2.51c-0.43-1.35-1.5-1.65-2.74-1.67
		c-2.49-0.29-3.22-3.58-5.93-3.47c1.2-2.46,0.17-5.1,0.64-7.61c2.42,1.16,4.84,2.33,7.26,3.49c1.04,1.08,1.91,2.47,3.86,2.21
		c0.02-2.28-1.39-3.03-2.81-3.78C673.24,571.61,669.44,569.96,665.12,569.48z"/>
	<path class="st0" d="M662.4,522.1c0.24,1.35,0.76,1.43,1.54,0.34c-3.43,1.38-4.23,2.91-0.63,5.3c1.9,1.26,3.41,3.09,5.09,4.68
		c1.29,1.22,1.49,3.57,0.33,3.78c-2.5,0.44-1.62,1.14-1.16,2.62c0.35,1.12,0.04,2.66-1.55,3.2c0-0.96-0.83-1.21-1.43-1.65
		c-5.25-4.02-11.1-5.08-17.47-3.53c0.01-1.53,0.02-3.07,0.03-4.6c0.43-0.41,0.86-0.81,1.29-1.22c-0.38-0.19-0.77-0.58-1.14-0.55
		c-1.1,0.09-2.19,0.33-3.29,0.51c-0.3-0.29-0.6-0.58-0.9-0.88c0.86-1.15,1.07-2.24-0.85-1.78c-2.05,0.49-4.03,1.11-6.16,0.66
		c0.01-4.5,0.02-9.01,0.04-13.51c1.76-1.05,3.75,1.65,5.45-0.33c0,0-0.17-0.1-0.17-0.1c1.75,3.31,5.54,5.86,3.9,10.44
		c-0.53,0.81-2.04,1.71-0.87,2.57c1.26,0.92,1.53-0.85,2.1-1.61c1.01-0.91,0.18-2.89,1.94-3.36c0.89-0.34,1.78-0.68,2.68-1.03
		c1.45,1.55,3.06,1.18,4.73,0.13c-1.24-0.12-2.49-0.25-3.73-0.37c-0.01-1.63-0.03-3.26-0.04-4.88c0.58-0.01,1.16-0.02,1.73-0.03
		c0.7,0.06,1.4,0.12,2.1,0.17C659.11,517.44,659.12,521.87,662.4,522.1z M663.57,534.78c0.58,0.31,1.16,1.21,1.76,0.12
		c0.07-0.12-0.71-0.71-1.1-1.08c-0.6-0.42-1.19-0.84-1.79-1.26c-0.9-0.4-1.91-1.92-2.71-0.53c-0.54,0.93,1.05,1.24,1.83,1.67
		C662.22,534.07,662.9,534.43,663.57,534.78z M655.56,531.68c1.29,0.18,2.54,1.34,3.95,0.27c-0.55-1.39-1.74-1.37-2.81-1.58
		c-2.66-0.45-5.32-0.92-7.75,1.31C651.14,531.68,653.35,531.68,655.56,531.68z"/>
	<path class="st0" d="M740.95,463.16c0.21-2.13-0.63-4.47,1.24-6.27c16.59,14.9,27.43,33.22,32.67,54.87
		c0.44,1.81,1.18,3.96-1.92,4.26c0,0,0.11,0.05,0.11,0.05c-0.21-6.31-3.58-11.24-7.01-16.14c0,0,0.08,0.11,0.08,0.11
		c-2.13-5.66-6.09-10.08-9.86-14.64c-4.75-5.73-12.49-9.39-12.74-18.29c-0.01-0.4-0.87-0.77-1.33-1.16c0,0-0.06-0.07-0.06-0.07
		C742.78,464.53,741.22,464.12,740.95,463.16z"/>
	<path class="st0" d="M671.16,471.66c0.01-1.41,0.01-2.82,0.02-4.22c7.05-2.35,13.99-2.07,20.82,0.86c0,0,0.06-0.16,0.06-0.16
		c1.09,1.27,1.82,3.02,3.9,3c0,0-0.05-0.07-0.05-0.07c-0.78,1.26-0.08,1.75,1.04,2.03c0,0,0.05,0.05,0.05,0.05
		c-0.52,1.56,0.47,2.86,0.75,4.29c1.24,6.46-2.2,12.71-8.16,14.78c-4.48,1.56-8.97-0.21-10.41-4.09c-1.54-4.16,0-7.2,5.03-9.08
		c2.34-0.87,3.31-1.97,2.31-4.37c-0.74-3.3-3.24-4.39-6.18-4.65C677.16,469.77,674.1,470.48,671.16,471.66z"/>
	<path class="st1" d="M761.97,598.92c0.36,1.78,0.73,3.56,1.09,5.33c0.04,0.78-1.86,0.62-0.9,1.85c0,0-0.03,0.01-0.03,0.01
		c-1.26-0.81-1.96-0.5-2.04,1.03c0,0,0.04-0.03,0.04-0.03c-1.29-0.88-2-0.62-2.03,1.01c0,0-0.01,0-0.01,0
		c-1.63-1.49-2.39-0.44-3.02,1.03c0,0,0.15,0.13,0.15,0.13c-5.53-2.45-9.89-0.41-14.54,2.88c-12.64,8.93-23.91,18.86-28.97,34.19
		c-2.41-1.09-1.33-2.4-0.89-3.95c3.78-13.37,13.52-22.15,23.49-30.75c3.75-3.24,7.64-6.33,11.54-9.55
		c-0.81-1.79-2.52-0.52-3.71-1.72c3.21-3.84,6.46-7.73,9.71-11.62c4.68,4.99,0.95,7.85-2.58,11.03c-3.64,3.28-3.19,4.89,1.28,6.08
		c-0.05,0.31-0.12,0.61-0.13,0.92c0,0.04,0.33,0.18,0.43,0.12c1.87-1.02,5.07-0.85,4.04-4.48c-0.23-0.67,0-0.83,0.63-0.58
		c-0.07,1.79,1.13,1.39,1.87,0.85C759.01,601.57,760.45,600.2,761.97,598.92z"/>
	<path class="st0" d="M711.16,427.47c6.47-1.12,12.62-0.83,18.21,3.28c7.8,5.74,9.26,12.9,4.16,21.25c-0.11,0.18,0.12,0.57,0.2,0.86
		c0,0,0.27-0.02,0.27-0.02c-0.3-0.31-0.45-0.82-1.11-0.44c-2.97,1.7-5.97,2.1-8.72-0.38c-2.96-2.66-2.03-5.61-0.42-8.55
		c0.02-0.04-0.45-0.35-0.69-0.53l-0.09,0.09c2.18,0.56,4.01-0.76,4.75-2.18c0.6-1.15-1.51-2.12-2.68-2.91l0.14,0.06
		c-3.81-4.39-8.92-4.48-14.12-4.27C711.1,431.64,711.13,429.56,711.16,427.47z"/>
	<path class="st1" d="M641.42,515.04c0,0,0.17,0.1,0.17,0.1c-0.63-1.95-3.61-0.72-4.2-3.47c-0.3-1.42-2.12,0.4-2.82,1.27
		c-1.64,2.04-0.08,2.38,1.56,2.54c-0.01,4.5-0.02,9.01-0.04,13.51c-5.64-0.42-9.67-3.77-10.89-9.03c-1.26-5.46,1.56-12.14,6.5-14.98
		c3.19-1.83,6.63-2.87,10.39-2.24c0,1.97,0,3.94,0,5.9c-0.82,0.29-1.63,0.58-2.45,0.87c-0.94,0.55-3.18,0.39-2.28,2.02
		c0.77,1.4,2.1-0.45,3.2-0.8c1.54,0.12,2.98-1.11,4.57-0.34c-0.18,1.88-0.35,3.77-0.53,5.65
		C643.56,515.66,642.69,514.71,641.42,515.04z"/>
	<path class="st1" d="M749.07,613.05c-0.21,1.84,0.43,3.23,2.13,4.07c-5.79,3.58-12.32,5.91-17.49,10.51
		c-0.4,0.24-0.8,0.48-1.2,0.72c-0.53,0.5-1.07,0.99-1.6,1.49c-0.93,0.47-2.35,0.54-1.81,2.22c-0.92-0.34-1.37-0.15-1.06,0.93
		c-0.82-0.93-1.14,0.08-1.63,0.43c-0.34,0.34-0.67,0.67-1.01,1.01c-0.31,0.31-0.61,0.61-0.92,0.92c-1.54,1.46-3.59,2.58-3.91,5.44
		c2.7-0.9,3.56-2.86,4.66-4.6c0.33-0.33,0.66-0.67,1-1c0.33-0.33,0.67-0.67,1-1c0.27-0.4,0.54-0.79,0.81-1.19
		c0.33-0.34,0.65-0.68,0.98-1.03c1.09,0,1.84-0.64,2.54-1.36c0.59-0.43,1.19-0.86,1.78-1.29c0.4-0.19,0.81-0.38,1.21-0.57
		c2.1-0.65,3.91-2.24,6.29-2.02c0.07,1.22,0.15,2.44,0.22,3.66c-3.74,2.14-8.52,2.54-11.09,6.63l0.06-0.11
		c-4.08,2.59-7.36,6.1-10.93,9.77c-0.35-2.51,2.22-3.54,1.88-5.7c-2.09-1.2-2.26,2.04-3.93,1.77
		C720.88,630.45,735.17,617.2,749.07,613.05z"/>
	<path class="st1" d="M711.16,427.47c-0.03,2.08-0.06,4.17-0.09,6.25c-15.75,2.64-20,15.08-21.12,26.78
		c-0.13,1.41,1.1,3.86-1.23,4.11c-2.3,0.25-2.49-2.2-2.96-3.95c-3.82-13.97,5.57-28.22,21.49-32.55
		C708.51,427.77,709.85,427.68,711.16,427.47z"/>
	<path class="st1" d="M691.99,468.31c-0.34-5.45-0.42-10.86,1.15-16.18c2.78-9.45,10.54-16.11,18.88-16.12
		c-0.01,2.71-0.03,5.43-0.04,8.14c-9.55,2.54-14.71,9.07-16.45,18.48c-0.45,2.45-1.28,4.33-3.48,5.52L691.99,468.31z"/>
	<path class="st1" d="M694.01,596.67c0,0-0.04-0.13-0.04-0.13c1.53-1.75,0.8-2.82-1.09-3.52c0,0-0.01,0-0.01,0
		c1.21-3.94,3.33-7.68,2.7-12.03c0.16-0.17,0.33-0.33,0.49-0.5c3.44-0.76,6.26-3.57,10.08-3.1c-0.01,1.36-0.02,2.73-0.03,4.09
		c-1.86,0.4-3.95-0.35-5.84,1.2c2.78,0.27,5.35,0.51,7.92,0.76c1.73,1.67-1.18,3.07-0.28,4.69c-3.01-1.49-5.98-2.6-8.59,0.88
		c2.64-0.96,5.37-1.89,7.47,0.68c1.83,2.24,0.05,4.34-0.78,6.41c0,0,0.09-0.17,0.09-0.17c-3.39,2.26-6.78,2.9-10.28,0.19
		C695.09,595.56,694.36,595.66,694.01,596.67z"/>
	<path class="st0" d="M741.06,630.37c-0.07-1.22-0.15-2.44-0.22-3.66c5.91-1.41,10.72-0.18,12.8,3.52
		c2.09,3.73,1.44,7.31-1.23,10.54c-2.25,2.72-5.41,3.69-8.72,3.59c-4.65-0.14-5.85-3.27-5.49-7.36l-0.13,0.11
		c1.23,0.44,0.81-0.68,1.08-1.14l-0.09,0.11c2.6-0.72,5.02-2.21,7.92-0.36c1.91,1.22,1.52-0.96,1.38-1.72
		C747.54,629.66,744.26,630.04,741.06,630.37z"/>
	<path class="st1" d="M672.31,624.16c-1.53,1.45-3.94,1.82-4.95,4.13c-0.21,0.64,0.48,0.59,0.88,0.68c3.22,0.69,5.19,2.52,4.46,5.93
		c-0.62,2.91-3.08,3.76-5.79,3.55c-3.38-0.26-5.58-1.98-5.87-5.57c-0.39-4.96,3.47-9.34,9.86-11.22
		C671.37,622.5,671.84,623.33,672.31,624.16z"/>
	<path class="st1" d="M680.17,642.71c-4.15-1.03-6.11-3.93-5.99-7.95c0.13-4.47,3.13-7.06,6.96-8.8c0.94-0.42,3.02,0.36,2.03-2
		c0.64-0.22,1.25-0.3,1.65,0.41c1.13,2.8,5.12,1.73,6.35,5.02c-2.87,0.25-5.76-0.55-8.48,0.52c-3.13,1.23-4.02,3.34-2.48,6.47
		C680.2,638.49,680.18,640.6,680.17,642.71z"/>
	<path class="st0" d="M683.04,463.55c-2.63,0.06-5.26,0.11-7.89,0.17c-0.01-4.16-0.01-8.32-0.02-12.49
		c6.99-0.89,6.96-0.88,7.63,6.12c0.17,1.79,0.58,3.55,0.88,5.33C683.44,462.98,683.24,463.27,683.04,463.55z"/>
	<path class="st0" d="M711.98,444.15c0.01-2.71,0.03-5.43,0.04-8.14c4.71-1.47,8.77,1.4,13.17,1.99c0,0-0.14-0.06-0.14-0.06
		c0.1,2.02-0.77,3.64-2.07,5.09c0,0,0.09-0.09,0.09-0.09C719.6,445.52,715.64,443.46,711.98,444.15z"/>
	<path class="st1" d="M675.13,451.24c0.01,4.16,0.01,8.32,0.02,12.49c-2.21-0.19-4.95,3.03-6.46,0.04
		c-1.57-3.12-0.93-6.77,1.56-9.62C671.53,452.67,673,451.34,675.13,451.24z"/>
	<path class="st1" d="M644.17,500.13c-0.16,0.02-0.36,0.11-0.48,0.05c-2.34-1.2-6.68,2.84-7.31-2.49c-0.59-4.97,2.35-8.06,7.62-8.79
		C644.05,492.65,644.11,496.39,644.17,500.13z"/>
	<path class="st1" d="M703.54,613.89c2.97,3.79,0.59,8.36,1.83,12.41c-0.53,2.49-1.05,4.98-1.63,7.7
		C698.51,627.15,698.52,621.27,703.54,613.89z"/>
	<path class="st0" d="M680.17,642.71c0.02-2.11,0.03-4.22,0.05-6.34c1.46-2.38,3.83-2.16,6.14-2.21c0.12,0,0.31-0.79,0.31-1.22
		c0-0.12-0.53-0.25-0.82-0.37c-0.14,0.42-0.49,1.11-0.37,1.21c1.02,0.82,1.8,2.37,3.53,1.41c0,0-0.15-0.17-0.15-0.17
		C688.54,641.88,686.89,643.35,680.17,642.71z"/>
	<path class="st0" d="M618.81,527.8c-3.59-2.65-0.74-6.4-1.63-9.51c2.11-0.72,4.57-2.34,5.72,1.04c0.91,2.68,3.03,5.99-1.9,7.32
		C620.22,526.86,619.53,527.41,618.81,527.8z"/>
	<path class="st0" d="M644.17,500.13c-0.06-3.74-0.12-7.48-0.18-11.22c3.75-1.14,5.5-0.02,4.99,4.14c-0.31,2.57,0.37,5.12,1.2,7.68
		C647.86,501.37,646.02,500.62,644.17,500.13z"/>
	<path class="st0" d="M642.1,508.65c0-1.97,0-3.94,0-5.9c8.22-0.43,10.23,0.85,10.55,6.71c0,0.05-0.21,0.16-0.31,0.16
		c-0.16,0-0.31-0.09-0.47-0.13c-0.43-0.65-1.02-0.66-1.68-0.45C647.49,508.9,644.8,508.77,642.1,508.65z"/>
	<path class="st1" d="M673.39,583.75c1.25,0.01,2.31,0.31,2.74,1.67c-2.17,1.45-0.06,2.07,0.67,2.64c0.79,0.62,2,2.18,2.8-0.13
		c0.97,0.04,1.47,0.55,1.51,1.52c-2.36,0.47-0.67,1.72-0.52,2.68c-1.24,0.63-1.7,1.69-1.64,3.02c-1.11-0.11-1.47-2.05-2.97-1.22
		l0.08,0.12c0.41-1.77-0.81-1.95-2.05-2.11l0.09,0.03C670.33,589.55,673.52,586.5,673.39,583.75z"/>
	<path class="st0" d="M644.61,516.05c0.18-1.88,0.35-3.77,0.53-5.65c1.63,0.06,3.27,0.13,4.9,0.19c0.46,0.71,1.11,0.69,1.82,0.47
		c2.09-0.51,2.54,1.93,4.15,2.3c0,0-0.03-0.21-0.03-0.21c-0.11,0.61-0.22,1.22-0.34,1.83c-0.5,0.02-0.99,0.04-1.49,0.06
		c-1.73-0.02-3.46-0.04-5.19-0.06c-0.25-0.18-0.5-0.19-0.76-0.02c-0.92,0.37-2.21,0.42-1.77,2l0.1-0.11
		C646.38,515.38,645.31,516.17,644.61,516.05z"/>
	<path class="st0" d="M675.77,595.11c4.94,4.22,7.67,9.57,8.01,16.21c-2.13-4.17-4.92-7.74-8.64-10.53
		C675.22,598.88,674.57,596.89,675.77,595.11z"/>
	<path class="st0" d="M678.97,595.14c-0.06-1.33,0.4-2.39,1.64-3.02c2.42,4.08,2.47,4.14,4.45,4.87c0,0-0.04-0.11-0.04-0.11
		c-0.11,4.32,1.98,8.37,1.07,12.96C684.38,604.59,682.39,599.49,678.97,595.14z"/>
	<path class="st0" d="M684.83,624.38c-0.41-0.72-1.02-0.63-1.65-0.41c-3.62,0.07-7.24,0.13-10.86,0.2
		c-0.47-0.83-0.94-1.66-1.41-2.49c5.01-1.36,9.95-1.41,14.7,0.98c0.78,0.39,2.07,0.77,0.91,2.01
		C685.99,625.22,685.32,624.88,684.83,624.38z"/>
	<path class="st1" d="M688.84,635.03c0,0,0.15,0.17,0.15,0.17c-0.38-2.24-0.36-2.3,1.16-1.73c4.02,1.51,6.2,4.76,8.83,9.55
		C694.47,640.25,690.14,639.63,688.84,635.03z"/>
	<path class="st1" d="M675.77,595.11c-1.2,1.79-0.55,3.77-0.62,5.68c-2.33-1.11-4.67-2.21-7.02-3.33c1.2-3.01,3.17-4.73,5.99-5.49
		c0,0-0.09-0.04-0.09-0.04c-0.62,1.97,0.98,1.79,2.05,2.11l-0.08-0.12C675.92,594.32,675.85,594.71,675.77,595.11z"/>
	<path class="st0" d="M669.2,619.18c4.65-2.9,8.49-3.15,12.43-3.28c2.24-0.08,3.16,0.97,3.01,2.83c-0.18,2.23-1.98,1.15-2.97,0.86
		C678.02,618.54,674.28,619.73,669.2,619.18z"/>
	<path class="st1" d="M708.42,623.93c0.98,0.09,1.97,0.18,2.95,0.27c-1.88,4.08-3.77,8.17-6.17,13.38
		C704.82,631.8,706.45,627.82,708.42,623.93z"/>
	<path class="st1" d="M738.2,637c-1.72,0.58-3.04,1.8-4.95,2.36c-3.09,0.9-2.62-1.08-3.22-2.46c0,0-0.06,0.11-0.06,0.11
		c3.41-0.27,5.45-3.58,8.8-3.98c0.25,0.5,0.5,0.99,0.75,1.49c-0.16,0.52-0.31,1.04-0.47,1.57c0,0,0.09-0.11,0.09-0.11
		c-0.95-0.18-1.19,0.32-1.08,1.14L738.2,637z"/>
	<path class="st1" d="M755.34,566.02c0.53,0.02,1.06,0.04,1.6,0.06c0.24,2.04-0.46,3.88-1.38,6.47
		C754.41,569.95,754.96,567.98,755.34,566.02z"/>
	<path class="st1" d="M651.86,511.06c-0.7,0.21-1.36,0.24-1.82-0.47c0.46-0.48,0.51-1,0.14-1.56c0.66-0.21,1.26-0.2,1.68,0.45
		C651.42,510,651.41,510.53,651.86,511.06z"/>
	<path class="st1" d="M683.04,463.55c0.2-0.29,0.4-0.58,0.6-0.86C683.97,463.35,684.23,463.96,683.04,463.55z"/>
	<path class="st1" d="M726.07,545.18c-0.16,2.57-0.68,5.18,1.02,7.49c-1.77,0.2-3.85-0.79-5.1,1.35l0.05-0.09
		c-2.49-0.91-5.11-1.18-7.67-0.73c-2.27,0.4-3.91,1.92-4.23,4.32c-0.23,1.76,0.22,3.29,3.13,3.36c-1.18-1.79-1.72-3.47,0.17-4.77
		c1.9-1.3,3.79-0.97,5.62,0.09c3.42,1.97,4.67,6.86,3.28,11.02c-0.83,2.49-3.39,3.48-4.31,5.78l0.04-0.07
		c-1.12,0.16-2.25,0.26-3.36,0.5c-8.67,1.91-16.2-5.92-14-14.53c0.72-2.82,2.46-5.02,4.02-7.34c0.3-0.3,0.59-0.59,0.89-0.89
		c0.34-0.34,0.68-0.68,1.01-1.02c0.53-0.5,1.06-1.01,1.59-1.51c0.43-0.24,0.86-0.47,1.29-0.71c0.71-0.47,2.28-0.8,1.63-1.73
		c-0.89-1.27-1.86,0.22-2.74,0.72c-0.29,0.24-0.58,0.48-0.87,0.72c-0.56,0.53-1.12,1.07-1.69,1.6c-0.41,0.25-0.83,0.5-1.24,0.75
		c-0.63,0.04-0.97,0.37-1,1c0.06-1.43,1.39-3.11-0.87-4.37c-0.76,1.84-1.44,3.49-2.17,5.28c-0.68-1.63-0.72-3.5-2.9-3.94
		c-0.09,0.56-0.31,1.06-0.22,1.49c1.94,9.32-1.47,14.92-10.62,17.37c-7.9,2.12-14.51-1.72-16.97-10.37
		c-2.75-9.68-0.32-18.4,6.04-26.01c7.87-9.43,18.52-13.6,30.29-15.49c-0.02,1.47-0.05,2.94-0.07,4.41
		c-3.73,1.7-8.03,2.04-11.32,4.78c-0.78,0.48-1.56,0.97-2.34,1.45c-3.18,0.79-4.62,3.39-6.16,5.89c-4.06,6.33-5.11,17.63-0.93,21.96
		c-1.51-3.79-1.9-6.45,0.88-8.44c3.15-2.25,5.93-1.05,8.75,0.6c0.53,0.68,1.09,2.01,1.98,1.23c1.01-0.88-0.37-1.47-0.96-2.08
		c-1.44-4.11,3.3-6.76,2.89-10.92c-2.68,0.98-3.72,3.1-4.1,5.01c-1.11,5.6-5.77,3.53-8.18,3.07c-3.07-0.58-0.49-3.78-0.34-5.81
		c0.08-1.09,0.84-2.13,1.29-3.19c1.94-2.04,3.87-4.08,5.81-6.13c0.79-0.47,1.57-0.95,2.36-1.42c8.16-3.34,16.42-5.95,25.4-3.75
		c-0.32,1.36,0.47,2.39,1.03,3.49c-7.02-1.08-13.44,0.14-18.97,4.7c4.98-1.12,9.61-3.76,14.99-2.94c-0.01,2.28-0.03,4.56-0.04,6.84
		c-2.3,1.46-5.7,0.98-7.47,4.1c3.88,0.1,6.83-2.93,10.51-1.93c-0.02,2.17-0.05,4.35-0.07,6.52c-3.28,1.03-7.12,0.51-10.71,4.12
		C716.25,545.3,721.13,543.12,726.07,545.18z M707.95,539.97c1.63-0.76,3.03-1.01,3.21-2.79c0.02-0.23-0.63-0.78-0.94-0.76
		C708.36,536.52,707.89,537.71,707.95,539.97z M703.34,546.85c1.79-0.73,2.34-1.8,1.46-3.47
		C703.29,543.88,702.67,544.79,703.34,546.85z"/>
	<path class="st1" d="M728.12,506.34c-0.85,2.22-1.19,4.53-1.19,6.9c-4.41-0.53-8.82-1.03-13.22-1.59
		c-2.72-0.35-5.67,0.55-8.09-1.47c-0.26-0.25-0.53-0.49-0.79-0.74c-0.4-0.4-0.8-0.79-1.2-1.19c-0.27-0.27-0.54-0.54-0.8-0.8
		c-0.62-0.58-0.99-2.22-2-1.34c-0.95,0.83,0.42,1.48,1.1,2.03c0.33,0.33,0.67,0.66,1,0.98c0.34,0.34,0.67,0.67,1.01,1.01
		c0.34,0.32,0.68,0.65,1.02,0.97c-4.4,3.49-10.18,2.79-15.01,4.98c0.99-2.14-1.11-3.15-1.82-4.6c-2.35-4.8-3.11-9.68-1.65-14.85
		c0.5-1.76,1.65-3.19,3.52-2.69c2.44,0.65,0.06,2.4,0.44,3.6c-0.86,3.75-0.8,7.41,1.16,10.86c0.5,0.65,0.45,2.33,1.68,1.63
		c1.04-0.59-0.24-1.63-0.42-2.49c-0.35-2.95-0.7-5.89-1.05-8.84c1-3.2,1.9-6.47,5.57-7.97c0.77,4.34-1.71,8.74,1.38,12.53
		c0.32,0.99,0.52,2.91,1.58,2.39c1.64-0.8-0.22-2.07-0.49-3.15c-1.98-9.55,2.05-16.03,10.6-17.15c3.11-0.41,5.8,0.97,8.64,1.73
		c0,0-0.12-0.11-0.12-0.11c0.7,0.71,1.4,1.41,2.1,2.12c0,0-0.09-0.1-0.09-0.1c1.79,3.79,2.71,7.61-0.58,11.05
		c-2.94,3.08-6.43,3.47-10.69,0.54c1.49,4.11,4.24,3.81,6.49,3.45C720.54,503.32,724.37,504.43,728.12,506.34z"/>
	<path d="M689.94,516.07c4.83-2.19,10.62-1.49,15.01-4.98c0.23-0.31,0.45-0.61,0.68-0.92c2.42,2.02,5.37,1.12,8.09,1.47
		c4.4,0.56,8.81,1.06,13.22,1.59c0.68,0.35,1.35,0.7,2.03,1.05c-0.45,0.39-0.9,0.78-1.35,1.17c-7.11-1.42-14.26-2.13-21.49-0.99
		c-11.77,1.89-22.42,6.06-30.29,15.49c-6.35,7.61-8.79,16.34-6.04,26.01c2.46,8.65,9.06,12.49,16.97,10.37
		c9.15-2.45,12.56-8.06,10.62-17.37c-0.09-0.43,0.13-0.92,0.22-1.49c2.18,0.44,2.22,2.31,2.9,3.94c0.74-1.79,1.41-3.44,2.17-5.28
		c2.27,1.26,0.93,2.94,0.87,4.37c0.38,0.35,0.76,0.7,1.15,1.05c-1.56,2.33-3.3,4.53-4.02,7.34c-2.2,8.61,5.33,16.44,14,14.53
		c1.1-0.24,2.24-0.34,3.36-0.5c0.03,2.81-3.85,3.35-3.64,6.26c-2.76-0.6-5.29-2.23-8.27-1.8c-3.82-0.47-6.63,2.34-10.07,3.1
		c0.67-5.14,5.89-3.73,8.67-6.05c-2.39-1.8-4.79-3.85-5.55-6.69c-1.49-5.54-3.7-3.77-6.3-1.05c-3.28,1.18-6.55,2.35-9.85,3.53
		c2.21,3.26,6.76,4.88,5.64,9.77c-6.11-6.7-11.93-13.81-21.57-15.63c-0.65-0.12-1.32-0.12-1.98-0.18c-2.59-0.78-5.08,0.14-7.6,0.49
		c-0.27-0.38-0.53-0.76-0.8-1.13c1.48-0.49,2.95-0.99,4.43-1.48c2.56,0,5.12,0,8.06,0c-0.72-2.07-1.78-3.98-1.99-5.97
		c-0.48-4.6-2.68-4.92-6.15-3c-3.17,0.55-5.65,2.68-8.62,3.77c2.3-3.1,5.82-4.07,9.13-5.42c1.32-0.54,3.42-0.04,3.34-2.47
		c3.95-2.19-1.23-2.57-0.8-4.06c0,0-0.09,0.11-0.09,0.11c3.19,0.62,2.12-1.58,2.07-3.11l-0.07,0.1c1.59-0.54,1.9-2.08,1.55-3.2
		c-0.46-1.49-1.34-2.19,1.16-2.62c1.16-0.2,0.96-2.56-0.33-3.78c-1.68-1.58-3.2-3.42-5.09-4.68c-3.6-2.39-2.8-3.92,0.63-5.3
		c1.64,1.61,3.49,3.05,4.86,4.87c2.27,3,3.84,2.08,6-0.2c1.86-1.96,1.18-2.72-0.57-4.11c-4.81-3.81-9.8-7.54-12.21-13.55
		c0.4-0.21,0.8-0.42,1.2-0.63c3.54,3.64,8.64,4.49,12.76,7.1l0.06,0.07c-0.53,0.13-0.75,0.53-0.37,0.88c0.7,0.64,1.35,0.46,1.8-0.39
		c0.25-0.21,0.49-0.42,0.73-0.63c1.38,1.12,2.66,2.42,4.16,3.33c2.86,1.73,3.43,0.45,2.61-2.26c1.93,1.01,3.86,2.01,5.06-0.93
		L689.94,516.07z"/>
	<path d="M742.17,465.95c0.46,0.38,1.32,0.76,1.33,1.16c0.25,8.9,8,12.56,12.74,18.29c3.78,4.56,7.73,8.98,9.86,14.64
		c-3.5,0.16-2.67-3.85-4.82-5c-3.55-6.05-8.57-10.83-13.69-15.46c-1.05-0.95-1.89-3.72-4.71-1.32c-2.92,2.48-1.24,3.97,0.14,5.89
		c-1.79,1.19-2.58-0.71-3.82-1.24c-1.15-1.92-3.22-1.55-4.89-1.67c-2.8-0.19-4.52-1.64-5.81-3.86c-1.55-2.64-0.99-5.44,0.22-8.41
		c-5.38,0.55-7.05,3.18-6.88,7.75c0.08,2.25,2.22,4.01,1.21,6.38c-3.82-4.45-4.19-9.94-0.97-13.86c2.18-2.65,4.89-3.33,7.98-1.95
		c0.86,0.38,2.63,1,1.19,2.45c-3.03,3.08-2.61,5.91,0.45,8.48c2.45,2.06,5.2,2.04,7.74,0.08c3.18-2.45,4.63-5.5,3.07-9.58
		C742.21,467.92,740.54,467.07,742.17,465.95z"/>
	<path class="st1" d="M748.13,507.44c-0.23,2.7,0.08,5.5-1.38,7.99c-2.51-0.6-3.57-4.11-6.76-3.33c0,0-0.04-0.03-0.04-0.03
		c1.01-1.91-0.89-2.01-1.72-2.44c-4.41-2.25-8.9-4.35-13.36-6.5c-0.93-0.45-2.73-0.29-2.26-1.88c0.38-1.28,0.95-3.01,2.87-2.98
		c1.14,0.02,2.28,0.29,3.41,0.46c6.16,0.96,11.42,4.45,17.31,6.19c0,0-0.07-0.08-0.07-0.08
		C745.77,506.51,747.77,506.34,748.13,507.44z"/>
	<path class="st1" d="M723.06,483.11c1.01-2.37-1.12-4.13-1.21-6.38c-0.17-4.57,1.5-7.2,6.88-7.75c-1.22,2.98-1.77,5.77-0.22,8.41
		c1.3,2.21,3.02,3.66,5.81,3.86c1.67,0.12,3.74-0.26,4.89,1.67c-1.97,2.7-0.58,6.18-2.09,8.98c-2.8-0.61-4.79-2.72-7.25-3.92
		c-2.6-1.27-3.68-4.58-6.87-4.98L723.06,483.11z"/>
	<path class="st1" d="M743.02,484.15c-1.38-1.91-3.06-3.41-0.14-5.89c2.82-2.4,3.66,0.37,4.71,1.32
		c5.13,4.63,10.14,9.42,13.69,15.46c-0.66,2.34,0.1,5.04-1.82,7.05c-0.08,0.09-0.27,0.12-0.4,0.1c-0.73-0.07-0.54-0.6-0.52-1.05
		c-0.53-1.34-1-2.74-2.66-3.12c0,0,0.14,0.13,0.14,0.13c-0.31-1.03-0.16-2.68-2.07-1.54c-1.31-0.16-1.83-0.72-1.01-1.97
		c-1.7-4.44-4.83-7.53-9.04-9.61l0.11,0.1c0.1-0.84-0.32-1.16-1.11-1.12L743.02,484.15z"/>
	<path d="M746.2,504.93c-5.88-1.74-11.14-5.23-17.31-6.19c-1.14-0.18-2.27-0.44-3.41-0.46c-1.92-0.03-2.49,1.7-2.87,2.98
		c-0.47,1.59,1.33,1.43,2.26,1.88c4.46,2.16,8.95,4.25,13.36,6.5c0.84,0.43,2.73,0.53,1.72,2.44c-3.94-1.91-7.89-3.83-11.83-5.74
		c-3.75-1.91-7.58-3.02-11.93-2.31c-2.25,0.37-5,0.66-6.49-3.45c4.26,2.94,7.76,2.54,10.69-0.54c3.28-3.44,2.37-7.26,0.58-11.05
		c2.42-0.21,3.58,1.66,5.04,3.04l0.08-0.08c-0.61,0.37-1.62-0.01-1.84,1.1c-0.72,3.66,1.31,4.67,7.28,3.65
		c-0.31,0.25-0.91,0.43-0.18,0.87c0.03-0.28,0.07-0.56,0.1-0.84c-0.56-0.49-1.12-0.97-1.68-1.46c0.25-0.28,0.51-0.56,0.76-0.84
		c2.85,1.47,5.7,2.95,8.55,4.42C741.56,500.78,745.78,500.63,746.2,504.93z"/>
	<path class="st1" d="M714.41,579.2c-0.21-2.91,3.67-3.45,3.64-6.26c0,0-0.04,0.07-0.04,0.07c2.02,0.86,3.54,2.54,4.65-1.61
		c1.9-7.1,3.64-7.44,8.57-3.53c-2.52,3.86-0.67,8.16-1.24,12.21c-1.89-2.04-3.74-4.12-5.7-6.11c-0.56-0.57-1.56-0.94-1.92,0.2
		c-0.14,0.46,0.49,1.16,0.77,1.76c-2.86,0.88-1.81,3.42-2.25,5.33c-1.03,0.04-1.62-2.01-2.94-0.64c-1.36-0.23-1.36-0.77-0.34-1.53
		c-0.45-0.57-0.88-1.15-1.78-0.96c-0.82,0.18-0.15,0.67-0.27,0.99C715.23,579.83,714.82,579.49,714.41,579.2z"/>
	<path d="M731.23,567.86c-4.92-3.91-6.66-3.57-8.57,3.53c-1.11,4.16-2.64,2.48-4.65,1.61c0.92-2.3,3.48-3.29,4.31-5.78
		c1.39-4.16,0.14-9.05-3.28-11.02c-1.83-1.05-3.71-1.39-5.62-0.09c-1.89,1.29-1.35,2.97-0.17,4.77c-2.91-0.07-3.36-1.6-3.13-3.36
		c0.32-2.4,1.97-3.92,4.23-4.32c2.56-0.45,5.18-0.19,7.67,0.73c2.43,2.71,1.49,7.28,5.19,9.3c2.27,1.24,4.5,2.56,6.74,3.85
		c2.82,3.79,5.57,7.61,5.05,13.85C736.99,575.41,735.84,570.53,731.23,567.86z"/>
	<path class="st1" d="M733.97,567.07c-2.25-1.29-4.47-2.61-6.74-3.85c-3.7-2.02-2.76-6.59-5.19-9.3c0,0-0.05,0.09-0.05,0.09
		c3.79,0.49,7.55,1.15,11.14,2.54C734.95,559.94,733.27,563.6,733.97,567.07z"/>
	<path d="M722.99,482.99c3.19,0.41,4.27,3.71,6.87,4.98c2.46,1.21,4.45,3.31,7.25,3.92c6.78,4.17,14.02,7.66,19.65,13.49
		c-0.31,0.28-0.63,0.56-0.94,0.84c-5.42-3.83-10.73-7.81-16.71-10.76c-4.06-2.75-8.84-4.27-12.62-7.52
		C724.88,486.56,723.46,485.14,722.99,482.99z"/>
	<path d="M758.06,506.98c1.17-0.18,0.99-1.05,0.96-1.86c-0.02-0.63,0-1.26,0.48-2.1c4.46,5.28,7.56,11.24,9.39,18.03
		c-3.4-4.91-7.43-9.15-11.52-13.32C757.61,507.47,757.83,507.22,758.06,506.98z"/>
	<path d="M710.44,616.49c1.25-2.69,2.51-5.37,3.74-8.06c2.77-6.04,3.17-12.3,1.71-18.68c4.94,10.2-0.01,18.76-4.7,27.36
		C710.94,616.9,710.69,616.7,710.44,616.49z"/>
	<path d="M694.74,523.65c3.29-2.74,7.59-3.07,11.32-4.78c8.36-0.81,16.59-0.4,24.55,2.56c-0.35,0.46-0.7,0.92-1.05,1.38
		c-3.06,0.64-5.46-2.14-8.49-1.67c-8.97-2.2-17.24,0.42-25.4,3.75C695.37,524.48,695.06,524.07,694.74,523.65z"/>
	<path d="M726.07,545.18c-4.94-2.06-9.82,0.12-15.71,0.87c3.59-3.61,7.42-3.09,10.71-4.12c6.16,0.5,11.96,1.73,15.71,7.33
		C732.98,548.43,730.02,545.54,726.07,545.18z"/>
	<path d="M762.16,606.11c-0.96-1.23,0.94-1.07,0.9-1.85c2.39-2.4,6.13-2.89,8.14-5.87c1.93-2.87,4.3-5.58,1.7-9.25
		c0.28-0.47,0.56-0.94,0.85-1.41c2.04,1.47,2.3,3.52,1.64,5.7C773.35,600.1,768.93,604.35,762.16,606.11z"/>
	<path d="M718.13,526.4c-5.38-0.82-10.01,1.82-14.99,2.94c5.53-4.57,11.94-5.78,18.97-4.7c3.06,0.63,6.49,0.21,9.75,3.34
		C726.55,528.29,722.51,525.64,718.13,526.4z"/>
	<path d="M753.73,523.28c4.24,4.73,7.06,10.25,9.04,16.24c-0.42,0.31-0.84,0.62-1.27,0.92c-1.57-6.11-6.14-10.62-8.7-16.2
		C753.11,523.92,753.42,523.6,753.73,523.28z"/>
	<path d="M739.99,512.11c3.18-0.78,4.25,2.73,6.76,3.33c2.4,2.55,5.13,4.81,6.98,7.85c-0.31,0.32-0.62,0.64-0.93,0.96
		C749.19,519.49,743.48,516.97,739.99,512.11z"/>
	<path d="M721.13,535.41c-3.68-1-6.62,2.03-10.51,1.93c1.76-3.12,5.17-2.63,7.47-4.1c5.07-0.3,10.09-0.39,15.38,3.15
		C728.65,536.92,725,534.5,721.13,535.41z"/>
	<path d="M764.83,587.18c-3.62-1.37-4.96,1.46-6.67,3.62c-0.69,0.88-1.44,2.2-2.69,1.13c-1.04-0.89-0.36-2.18,0.38-3.02
		c2.47-2.78,5.04-5.48,7.83-8.48c1.47,1.87,0.45,4.5,2.32,5.82C765.61,586.56,765.22,586.87,764.83,587.18z"/>
	<path d="M706.01,596.11c0.84-2.08,2.61-4.18,0.78-6.41c-2.1-2.57-4.83-1.64-7.47-0.68c2.61-3.48,5.58-2.37,8.59-0.88
		C709.73,592.69,709.4,594.07,706.01,596.11z"/>
	<path d="M766.03,499.93c3.44,4.9,6.8,9.84,7.01,16.14C770.6,510.74,766.99,505.91,766.03,499.93z"/>
	<path d="M743.9,485.04c4.21,2.08,7.34,5.17,9.04,9.61C748.08,493.19,746.36,488.77,743.9,485.04z"/>
	<path d="M766,586.25c2.42,1.34,5.51-0.86,7.74,1.47c-0.28,0.47-0.56,0.94-0.85,1.41c-3.48-1.02-5.23,1.7-7.7,4.32
		c-0.15-2.64-0.26-4.46-0.36-6.28C765.22,586.87,765.61,586.56,766,586.25z"/>
	<path d="M723.15,575.93c-0.28-0.59-0.92-1.29-0.77-1.76c0.35-1.15,1.36-0.77,1.92-0.2c1.95,1.98,3.81,4.06,5.7,6.11
		c0.23,0.81,0.45,1.62,0.68,2.42c-0.43,0.39-0.87,0.78-1.3,1.18C727.18,581.18,726.38,577.58,723.15,575.93z"/>
	<path d="M761.97,598.92c-1.51,1.28-2.96,2.65-4.56,3.79c-0.75,0.53-1.94,0.94-1.87-0.85c2.73-2.69,5.46-5.38,8.18-8.07
		c0.23,0.52,0.47,1.05,0.7,1.57C763.6,596.55,762.78,597.74,761.97,598.92z"/>
	<path d="M733.12,556.56c-3.59-1.39-7.34-2.04-11.14-2.54c1.26-2.14,3.34-1.14,5.1-1.35c2.18,0.45,4.56,0.3,6.37,1.93
		C734.28,555.35,734.64,556.15,733.12,556.56z"/>
	<path d="M764.73,547.36c1.11,4.46,0.9,8.92,0.01,13.38c-0.4-0.39-0.79-0.79-1.19-1.18c0.29-3.7,0.61-7.4-0.08-11.09
		C763.89,548.1,764.31,547.73,764.73,547.36z"/>
	<path d="M754.9,602.45c1.03,3.63-2.18,3.46-4.04,4.48c-0.1,0.05-0.43-0.08-0.43-0.12c0.01-0.31,0.08-0.62,0.13-0.92
		C751.45,604.03,752.16,601.95,754.9,602.45z"/>
	<path d="M725.74,591.3c0.51,3.38,1.44,6.78-1.28,10.09c0-2.97,0-5.95,0-8.92C724.89,592.08,725.31,591.69,725.74,591.3z"/>
	<path d="M758.36,514.9c2.36,1.09,4.15,2.64,5.32,6.06C760.31,519.42,758.83,517.59,758.36,514.9z"/>
	<path d="M708.19,583.44c-2.57-0.25-5.14-0.49-7.92-0.76c1.89-1.55,3.97-0.8,5.84-1.2C706.72,582.22,708.83,581.36,708.19,583.44z"
		/>
	<path d="M709.14,582.96c2.51,0.74,3.84,1.65,5.58,4.52C711.54,586.98,710.06,586.19,709.14,582.96z"/>
	<path d="M754.63,539.33c-1-1.9-1.99-3.8-2.99-5.71c2.94,0.67,3.26,2.96,4.12,4.89C755.39,538.78,755.01,539.05,754.63,539.33z"/>
	<path d="M733.55,516.21c0.15,0.04,0.32,0.07,0.46,0.13c1.27,0.59,2.72,0.9,3.48,2.23c0.08,0.14-0.41,0.87-0.7,0.91
		c-1.83,0.27-3.37-0.16-4.08-2.11C732.99,516.99,733.27,516.6,733.55,516.21z"/>
	<path d="M748.13,507.44c-0.36-1.1-2.36-0.94-2-2.59c2.38-1.49,3.5,0.65,3.93,1.99C750.5,508.2,748.98,507.71,748.13,507.44z"/>
	<path d="M733.28,536.51c2.06-0.26,3.29,0.47,4.05,2.01c0.2,0.41,0.05,0.86-0.57,0.97C734.74,539.83,733.87,538.71,733.28,536.51z"
		/>
	<path d="M740,540.38c-2.06,1.08-2.84,0.27-3.54-1.03c-0.36-0.67,0.2-1.16,0.38-1.17C738.33,538.1,739.07,539.19,740,540.38z"/>
	<path d="M763.47,548.47c-0.36-1.66-0.72-3.32-1.09-4.98c0.43-0.36,0.86-0.72,1.29-1.07c0.35,1.65,0.7,3.29,1.05,4.94
		C764.31,547.73,763.89,548.1,763.47,548.47z"/>
	<path d="M757.48,543.65c0.41,1.58,0.82,3.16,1.23,4.74c-0.47,0.35-0.94,0.71-1.41,1.06c-0.34-1.67-0.68-3.33-1.02-5
		C756.68,544.19,757.08,543.92,757.48,543.65z"/>
	<path d="M764.73,560.74c-0.39,1.58-0.78,3.15-1.17,4.73c-0.41-0.32-0.83-0.64-1.24-0.96c0.41-1.65,0.81-3.3,1.22-4.95
		C763.94,559.95,764.34,560.35,764.73,560.74z"/>
	<path d="M731.27,586.7c1.18,1.73,1.32,3.22,0.47,5.38C730.99,590.08,730.49,588.62,731.27,586.7z"/>
	<path d="M755.89,498.02c1.66,0.38,2.13,1.78,2.66,3.12C756.24,501.71,755.35,500.67,755.89,498.02z"/>
	<path d="M738.49,525.86c1.88,0.08,3.33,0.78,4.11,2.47c0.06,0.13-0.37,0.71-0.58,0.71C740.01,529.11,739.1,527.68,738.49,525.86z"
		/>
	<path d="M745.86,532.41c1.87,0.57,3.24,1.52,3.15,3.52c-0.01,0.22-0.58,0.65-0.7,0.59C746.63,535.73,745.99,534.25,745.86,532.41z"
		/>
	<path d="M752.91,509.1c0.12,0.7-0.64,0.8-1.15,0.87c-1.2,0.16-1.58-0.83-2.06-1.68c-0.48-0.84,0.43-1.48,0.65-1.44
		C751.48,507.08,752.41,507.73,752.91,509.1z"/>
	<path d="M731.6,597.86c-1.04-1.38-0.47-2.42-0.07-3.71C732.67,595.55,732.1,596.59,731.6,597.86z"/>
	<path d="M733.51,523.61c1.89-0.69,3.02,0.06,4.02,1.72C735.42,526.2,734.58,524.51,733.51,523.61z"/>
	<path d="M717.96,580.62c1.32-1.38,1.9,0.68,2.94,0.64c0.2,0.43,0.4,0.87,0.6,1.3c-0.33,0.4-0.66,0.8-0.99,1.2
		C718.77,583.43,718.62,581.82,717.96,580.62z"/>
	<path d="M724.46,592.47c-0.37-1.33-0.74-2.66-1.11-3.98c0.4-0.31,0.81-0.61,1.21-0.92c0.39,1.24,0.79,2.49,1.19,3.73
		C725.31,591.69,724.89,592.08,724.46,592.47z"/>
	<path d="M728.97,514.29c0.94,0.36,1.88,0.72,2.82,1.07c-0.42,0.43-0.84,0.86-1.26,1.28c-0.97-0.4-1.93-0.79-2.9-1.19
		C728.07,515.07,728.52,514.68,728.97,514.29z"/>
	<path d="M763.57,565.47c-0.32,1.02-0.64,2.04-0.97,3.05c-0.43-0.34-0.86-0.67-1.3-1.01c0.34-1,0.68-2,1.02-3
		C762.74,564.83,763.15,565.15,763.57,565.47z"/>
	<path d="M730.67,582.49c0.41,1.18,1.31,2.27,0.79,3.69c-2.07,0.22-1.51-1.61-2.09-2.51C729.8,583.28,730.24,582.89,730.67,582.49z"
		/>
	<path d="M730.61,521.43c0.72,0.98,3.4,0.21,2.69,1.82c-0.78,1.77-2.44-0.23-3.73-0.43C729.92,522.35,730.27,521.89,730.61,521.43z"
		/>
	<path d="M762.6,568.52c-0.63,0.98-0.43,3.41-1.9,2.69c-1.68-0.82,0.43-2.4,0.6-3.7C761.74,567.85,762.17,568.19,762.6,568.52z"/>
	<path d="M722.38,608.21c0.33-1.01,0.66-2.03,0.98-3.04c0.44,0.44,0.89,0.88,1.33,1.32c-0.33,1-0.66,2-0.99,3
		C723.26,609.07,722.82,608.64,722.38,608.21z"/>
	<path d="M723.36,605.17c0.32-1.04,0.15-2.37,1.7-2.78c1.15,1.49-0.17,2.75-0.38,4.09C724.25,606.05,723.81,605.61,723.36,605.17z"
		/>
	<path d="M755.07,609.16c0.62-1.46,1.39-2.51,3.02-1.03C757.37,609.33,756.68,610.6,755.07,609.16z"/>
	<path d="M756.53,540.59c0.31,1.02,0.63,2.04,0.94,3.07c-0.4,0.27-0.8,0.53-1.2,0.8c-0.3-0.99-0.6-1.97-0.91-2.96
		C755.76,541.19,756.15,540.89,756.53,540.59z"/>
	<path d="M762.38,543.49c-0.29-1.02-0.59-2.03-0.88-3.05c0.42-0.31,0.84-0.62,1.27-0.92c0.3,0.97,0.61,1.93,0.91,2.9
		C763.24,542.77,762.81,543.13,762.38,543.49z"/>
	<path d="M744.48,545.79c0.3,0.56,0.66,0.92,0.63,1.24c-0.08,0.75-0.7,0.41-1.07,0.29c-0.25-0.08-0.41-0.42-0.6-0.64
		C743.74,546.42,744.04,546.17,744.48,545.79z"/>
	<path d="M752.76,546.56c-0.49-0.77-0.81-1.25-1.1-1.74c-0.41-0.7,0.38-0.7,0.61-1.04c0.37,0.44,0.85,0.84,1.05,1.35
		C753.43,545.4,753.06,545.86,752.76,546.56z"/>
	<path d="M755.37,541.5c-0.24-0.72-0.49-1.45-0.73-2.17c0.38-0.27,0.75-0.54,1.13-0.81c0.26,0.69,0.51,1.38,0.77,2.07
		C756.15,540.89,755.76,541.19,755.37,541.5z"/>
	<path d="M752.57,532.67c-0.45,0.21-1.07,0.59-1.13,0.51c-0.41-0.5-0.72-1.08-0.97-1.68c-0.02-0.05,0.9-0.6,0.94-0.55
		C751.83,531.45,752.15,532.02,752.57,532.67z"/>
	<path d="M731.79,515.36c0.59,0.29,1.18,0.57,1.77,0.86c-0.28,0.39-0.56,0.78-0.84,1.17c-0.95,0.4-1.59-0.09-2.19-0.74
		C730.95,516.22,731.37,515.79,731.79,515.36z"/>
	<path d="M722.25,583.79c0.42,0.59,0.84,1.18,1.25,1.77c-0.36,0.34-0.72,0.69-1.08,1.03c-0.42-0.72-0.83-1.44-1.25-2.16
		C721.53,584.22,721.89,584.01,722.25,583.79z"/>
	<path d="M723.5,585.57c0.35,0.67,0.7,1.34,1.05,2c-0.4,0.31-0.81,0.61-1.21,0.92c-0.31-0.63-0.62-1.26-0.93-1.89
		C722.78,586.25,723.14,585.91,723.5,585.57z"/>
	<path d="M714.42,587.51c1,0.01,1.4,0.52,1.43,1.21c0.02,0.34,0.01,1.12-0.76,0.77c-0.4-0.18-0.82-0.55-0.97-0.93
		C714.01,588.27,714.32,587.82,714.42,587.51z"/>
	<path d="M756.77,505.39c0.43,0.53,0.86,1.06,1.3,1.58c-0.23,0.25-0.46,0.5-0.69,0.75c-0.52-0.5-1.04-1-1.55-1.49
		C756.14,505.95,756.45,505.67,756.77,505.39z"/>
	<path d="M753.95,496.62c1.92-1.14,1.77,0.51,2.07,1.54C753.96,499.5,754.24,497.68,753.95,496.62z"/>
	<path d="M760.09,607.14c0.08-1.53,0.78-1.83,2.04-1.03C761.96,607.47,761.38,608.01,760.09,607.14z"/>
	<path d="M758.1,608.13c0.03-1.63,0.74-1.9,2.03-1.01C760.01,608.57,759.3,608.83,758.1,608.13z"/>
	<path d="M739.56,560.43c0.24,0.45,0.47,0.89,0.71,1.34c-0.21,0.45-0.43,0.9-0.64,1.35c-0.39-0.54-0.78-1.08-1.16-1.62
		C738.83,561.15,739.2,560.79,739.56,560.43z"/>
	<path d="M738.57,559.19c0.33,0.41,0.66,0.83,0.99,1.24c-0.37,0.36-0.73,0.71-1.1,1.07c-0.24-0.4-0.48-0.8-0.72-1.2
		C738.02,559.93,738.3,559.56,738.57,559.19z"/>
	<path d="M763.71,593.8c0.38-0.13,1.01-0.49,1.12-0.37c0.7,0.77,0.18,1.38-0.42,1.94C764.18,594.84,763.95,594.32,763.71,593.8z"/>
	<path d="M742.91,484.02c0.78-0.04,1.21,0.28,1.11,1.12C742.95,485.46,742.22,485.44,742.91,484.02z"/>
	<path d="M737.75,560.3c-0.31-0.36-0.62-0.72-0.93-1.08c0.24-0.35,0.47-0.71,0.71-1.06c0.35,0.35,0.7,0.69,1.05,1.04
		C738.3,559.56,738.02,559.93,737.75,560.3z"/>
	<path d="M736.82,559.22c-0.63-0.4-1.58-0.8-0.74-1.66c0.49-0.51,1.07,0.11,1.45,0.6C737.29,558.51,737.05,558.87,736.82,559.22z"/>
	<path d="M715.58,579.12c0.12-0.32-0.55-0.81,0.27-0.99c0.9-0.2,1.33,0.38,1.78,0.96C716.95,579.89,716.27,580.05,715.58,579.12z"/>
	<path d="M735.67,531.77c-0.1-0.05-0.22-0.1-0.34-0.16c0.11-0.18,0.23-0.35,0.34-0.53c0.12,0.11,0.24,0.23,0.36,0.34
		C735.92,531.54,735.8,531.66,735.67,531.77z"/>
	<path d="M737.43,520.18c0.12,0,0.27-0.04,0.34,0.02c0.09,0.07,0.2,0.26,0.16,0.33c-0.22,0.46-0.48,0.46-0.68-0.02
		C737.23,520.43,737.37,520.28,737.43,520.18z"/>
	<path d="M739.43,521.18c0.12,0,0.27-0.04,0.34,0.02c0.09,0.07,0.2,0.26,0.17,0.34c-0.22,0.47-0.48,0.47-0.68-0.01
		C739.23,521.44,739.37,521.29,739.43,521.18z"/>
	<path d="M733.87,530.28c-0.01,0.12,0.03,0.27-0.03,0.34c-0.08,0.09-0.27,0.19-0.35,0.15c-0.47-0.23-0.46-0.49,0.03-0.67
		C733.61,530.07,733.75,530.21,733.87,530.28z"/>
	<path d="M740.27,561.77c0.52,0.36,1.07,0.79,0.69,1.48c-0.45,0.83-0.92,0.36-1.32-0.13C739.84,562.67,740.06,562.22,740.27,561.77z
		"/>
	<path d="M745.41,550.51c-0.31-0.72-0.82-1.49,0.02-2.13c0.14-0.11,0.72,0.37,1.09,0.57C746.15,549.47,745.78,549.99,745.41,550.51z
		"/>
	<path d="M721.17,584.44c-0.31-0.14-0.53-0.37-0.66-0.68c0.33-0.4,0.66-0.8,0.99-1.2c0.25,0.41,0.5,0.83,0.75,1.24
		C721.89,584.01,721.53,584.22,721.17,584.44z"/>
	<path d="M1041.87,519.59c0-8.82-0.02-17.65,0.02-26.47c0.01-1.55-0.55-3.67,2.12-3.6c12.79,0.3,25.69-1.37,38.33,1.28
		c15.42,3.24,23.87,14.74,23.08,30.34c-0.76,15.04-10.57,25.74-25.71,27.87c-11.6,1.63-23.28,0.52-34.91,0.91
		c-3.14,0.1-2.94-1.79-2.94-3.86C1041.88,537.23,1041.87,528.41,1041.87,519.59z"/>
	<path class="st0" d="M664.12,544.94c-0.43,1.49,4.75,1.87,0.81,4.06c-0.62-0.31-1.23-0.62-1.85-0.93
		c-2.69-0.02-5.37-0.04-8.06-0.05c-1.28-0.58-2.12,0.21-2.97,0.96c-1.31,0.69-2.61,1.37-3.92,2.06c-2.17-1.03-2.18-2.95-2.04-4.94
		C651.88,542.4,658.03,544.15,664.12,544.94z"/>
	<path d="M639.64,550.58c-1.23,1.47-2.46,2.94-4.92,5.89c1.9-10.11-1.42-15.18-10.4-15.99c2.41-0.81,4.82-1.61,7.23-2.42
		c0.24,0.37,0.47,0.74,0.71,1.11c1.28,2.08,2.02,4.81,5.35,4.38c0.33,0.35,0.67,0.7,1,1.05c-1.28,1.86-2.36,3.7,0.37,5.28
		C639.19,550.13,639.41,550.36,639.64,550.58z"/>
	<path d="M664.12,544.94c-6.08-0.79-12.23-2.54-18.03,1.16c-1.32,0.65-2.65,1.31-3.97,1.96c-0.22-0.23-0.43-0.46-0.65-0.69
		c2.2-1.43,4.4-2.87,6.6-4.3c5.54-1.12,11.01-1.73,15.96,1.97L664.12,544.94z"/>
	<path d="M649.79,568.72c-1.57,1.13-2.23,3.58-4.78,3.29c0.8-3.1,1.92-6.2,0.17-9.35c0.35-0.28,0.7-0.56,1.06-0.84
		c1.62,2.03,1.82-0.72,2.81-0.84c0.12,0.18,0.24,0.36,0.36,0.54c0.08,1.86-1.58,3.6-0.38,5.54l0.1-0.09
		c-0.29-0.39-0.6-0.37-0.67,0.1c-0.03,0.22,0.27,0.48,0.42,0.73C649.19,568.11,649.49,568.42,649.79,568.72z"/>
	<path d="M639.73,561.69c1.33-1.65,2.67-3.31,4-4.96c0.31,0.24,0.61,0.48,0.92,0.72c-1.44,2.18,1.53,2.75,1.6,4.38
		c-0.35,0.28-0.7,0.56-1.06,0.84c-1.48-1.02-2.97-1.24-4.47-0.03C640.39,562.32,640.06,562.01,639.73,561.69z"/>
	<path d="M644.01,530.99c1.1-0.18,2.19-0.43,3.29-0.51c0.36-0.03,0.76,0.35,1.14,0.55c-0.43,0.41-0.86,0.81-1.29,1.22
		c-0.87,0.13-1.73,0.27-2.6,0.4c-0.26-0.34-0.51-0.68-0.77-1.02C643.85,531.42,643.93,531.2,644.01,530.99z"/>
	<path d="M648.13,551.04c1.31-0.69,2.61-1.37,3.92-2.06c0.12,2.36-2.13,2.6-3.36,3.77c-0.24-0.28-0.47-0.56-0.71-0.83
		C648.03,551.62,648.08,551.33,648.13,551.04z"/>
	<path d="M630.81,558.7c0.81-0.72,2.02-2.34,2.62-1.54c1.19,1.59-1.02,1.81-1.85,2.57C631.31,559.39,631.06,559.04,630.81,558.7z"/>
	<path d="M640.93,532.84c0.7-0.99,1.84-0.94,2.85-1.21c0.26,0.34,0.51,0.68,0.77,1.02c-0.99,0.35-1.97,0.7-2.96,1.05
		C641.37,533.41,641.15,533.13,640.93,532.84z"/>
	<path d="M642.12,548.06c-0.5,0.54-1.01,1.08-1.51,1.63c-0.22-0.27-0.44-0.53-0.65-0.8c0.5-0.5,1.01-1.01,1.51-1.51
		C641.68,547.6,641.9,547.83,642.12,548.06z"/>
	<path d="M633.61,536.52c0.64-0.4,1.29-0.8,1.93-1.2c0.28,0.34,0.55,0.68,0.83,1.02c-0.6,0.43-1.19,0.85-1.79,1.28
		C634.27,537.25,633.94,536.88,633.61,536.52z"/>
	<path d="M636.84,534.75c0.67-0.33,1.35-0.65,2.02-0.98c0.25,0.31,0.51,0.62,0.76,0.94c-0.66,0.33-1.31,0.66-1.97,1
		C637.38,535.38,637.11,535.07,636.84,534.75z"/>
	<path d="M638.86,533.77c0.69-0.31,1.38-0.62,2.07-0.93c0.22,0.29,0.44,0.57,0.66,0.86c-0.66,0.33-1.31,0.67-1.97,1
		C639.36,534.39,639.11,534.08,638.86,533.77z"/>
	<path d="M643.73,556.73c0.42-0.59,0.85-1.19,1.27-1.78c0.29,0.21,0.58,0.43,0.87,0.64c-0.41,0.62-0.82,1.24-1.23,1.86
		C644.34,557.21,644.04,556.97,643.73,556.73z"/>
	<path d="M628.62,559.49c0.73-0.26,1.46-0.53,2.19-0.79c0.25,0.34,0.51,0.69,0.76,1.03c-0.64,0.31-1.28,0.62-1.92,0.93
		C629.3,560.27,628.96,559.88,628.62,559.49z"/>
	<path d="M640.72,562.64c-0.42,0.42-0.83,0.84-1.25,1.26c-0.48-0.8-0.39-1.54,0.26-2.2C640.06,562.01,640.39,562.32,640.72,562.64z"
		/>
	<path d="M645.07,571.94c1.02,1.36-0.31,1.59-1.02,2.12C642.74,572.56,643.8,572.2,645.07,571.94z"/>
	<path d="M640.61,549.69c-0.32,0.3-0.64,0.6-0.97,0.9c-0.23-0.22-0.45-0.45-0.67-0.7c0.33-0.33,0.65-0.67,0.98-1
		C640.17,549.15,640.39,549.42,640.61,549.69z"/>
	<path d="M632.23,537.45c0.46-0.31,0.92-0.62,1.38-0.93c0.33,0.37,0.65,0.73,0.98,1.1c-0.39,0.24-0.79,0.49-1.18,0.73
		C633.02,538.05,632.62,537.75,632.23,537.45z"/>
	<path d="M631.55,538.07c0.13-0.32,0.36-0.52,0.68-0.62c0.39,0.3,0.78,0.6,1.17,0.9c-0.38,0.28-0.76,0.55-1.15,0.83
		C632.02,538.81,631.79,538.44,631.55,538.07z"/>
	<path d="M645.01,554.95c0.3-0.37,0.6-0.74,0.9-1.11c0.27,0.27,0.55,0.53,0.82,0.8c-0.28,0.32-0.56,0.63-0.84,0.95
		C645.59,555.38,645.3,555.16,645.01,554.95z"/>
	<path d="M645.9,553.84c0.34-0.33,0.67-0.66,1.01-0.99c0.26,0.25,0.51,0.5,0.77,0.75c-0.32,0.35-0.64,0.69-0.96,1.04
		C646.45,554.37,646.17,554.11,645.9,553.84z"/>
	<path d="M646.91,552.85c0.36-0.31,0.71-0.62,1.06-0.94c0.24,0.28,0.47,0.56,0.71,0.83c-0.33,0.28-0.67,0.57-1,0.85
		C647.43,553.35,647.17,553.1,646.91,552.85z"/>
	<path d="M635.55,535.31c0.43-0.19,0.86-0.37,1.29-0.56c0.27,0.32,0.54,0.63,0.81,0.95c-0.42,0.21-0.85,0.42-1.27,0.63
		C636.1,535.99,635.82,535.65,635.55,535.31z"/>
	<path d="M698.75,503.27c-3.09-3.79-0.61-8.18-1.38-12.53c-3.67,1.5-4.57,4.77-5.57,7.97c-0.46-0.39-0.92-0.78-1.37-1.17
		c-0.38-1.2,2-2.95-0.44-3.6c-1.87-0.5-3.03,0.93-3.52,2.69c-1.46,5.17-0.7,10.05,1.65,14.85c0.71,1.45,2.81,2.45,1.82,4.6
		c0,0,0.12-0.07,0.12-0.07c-5.55-4.86-6.63-11.11-5.62-18.02c0.15-1.01,1.41-2.32-0.33-2.93c-1.92-0.67-2.11,1.11-2.47,2.29
		c-0.38,1.26-0.49,2.6-0.76,3.89c-1.05,4.91,1.22,9.28,2.19,13.87c-5.1-5.59-4.75-12.05-2.63-18.59c0.65-2,0.44-3.27-1.25-4.12
		c-2.08-1.04-2.5,1.1-3.16,2.17c-3.9,6.38-2.71,12.66,0.67,18.82c-0.22,0.21-0.45,0.42-0.67,0.63c-5.31-6-4.84-12.8-2.76-19.82
		c1.58-0.42,2.36-1.82,3.3-2.91c1.79-2.08,0.62-4.56-0.05-6.53c-0.64-1.85-2.83-0.96-4.42-0.56c-6.46,3.52-6.97,9.59-6.56,15.88
		c0.17,2.58,1.06,5.12,1.75,8.29c-6.89-9.34-3.22-26.78,7.82-26.68c4-0.64,6.59-4.49,10.77-4.78c0.08-0.01,0.08-1.21,0.12-1.86
		c0.17-0.12,0.34-0.24,0.51-0.36c0.99,2.4,0.02,3.5-2.32,4.37c-5.03,1.88-6.57,4.91-5.03,9.08c1.44,3.88,5.93,5.64,10.41,4.09
		c5.96-2.07,9.4-8.32,8.16-14.78c-0.27-1.43-1.26-2.73-0.75-4.29c3.76-1.14,3.07-5.52,5.54-7.61c0.42,0.33,0.85,0.66,1.27,0.99
		c-2.06,5.04-2.62,10.25-1.81,15.62c0.14,0.94,0.03,2.67,0.94,2.54c3.63-0.52,7.19-1.49,10.77-2.29c-0.14-0.64-0.29-1.27-0.43-1.91
		c0.45-0.32,0.9-0.65,1.35-0.97c1.12,2.73,3.88,4.5,4.45,7.55c-2.84-0.75-5.54-2.13-8.64-1.73c-8.55,1.12-12.58,7.6-10.6,17.15
		C699.47,502.76,699.11,503.01,698.75,503.27z"/>
	<path d="M711.98,444.15c3.66-0.69,7.62,1.37,11.08-1.2c0.24,0.18,0.71,0.49,0.69,0.53c-1.61,2.95-2.54,5.89,0.42,8.55
		c2.75,2.48,5.74,2.07,8.72,0.38c0.66-0.37,0.81,0.13,1.11,0.44c-2.2,2.98-5.78,3.05-8.26,1.94c-5.88-2.64-10.03,0.26-14.43,3.09
		c-0.93,0.6-1.79,1.29-3.13,2.26c-0.28-2.31,1.7-2.73,2.06-3.98c2.94-1.51,5.79-3.28,8.86-4.46c2.21-0.85,1.88-2.25,1.88-3.91
		c0.01-2.01-1.39-1.94-2.69-2.08c-3.19-0.34-6.28-0.01-9.21,1.41c-10.45,4.68-12.5,13.96-13.13,24.01c-2.08,0.02-2.81-1.73-3.9-3
		c2.2-1.19,3.02-3.07,3.48-5.52C697.27,453.22,702.43,446.69,711.98,444.15z"/>
	<path class="st0" d="M709.08,447.13c2.92-1.42,6.02-1.75,9.21-1.41c1.3,0.14,2.7,0.06,2.69,2.08c-0.01,1.66,0.33,3.06-1.88,3.91
		c-3.07,1.18-5.92,2.94-8.86,4.46C707.93,453.39,709.33,450.16,709.08,447.13z"/>
	<path d="M736.17,461.55c-7.31-2.13-13.79-0.96-19.75,4.38C717.72,459.18,729.01,456.83,736.17,461.55z"/>
	<path d="M713.28,480.5c-1.99-4.07-2.11-8.06,0.49-11.95c0.67,3.65-0.46,7.41,0.86,10.98C714.18,479.85,713.73,480.17,713.28,480.5z
		"/>
	<path d="M740.95,463.16c0.27,0.96,1.83,1.37,1.16,2.72c-2.46,0.77-2.82-1.84-4.29-2.67c0.31-0.38,0.62-0.76,0.93-1.14
		C739.49,462.44,740.22,462.8,740.95,463.16z"/>
	<path d="M702.53,465.54c0.97-1.36,1.95-2.73,2.92-4.09c0.27,0.25,0.54,0.5,0.81,0.75c-0.82,1.44-1.64,2.89-2.45,4.33
		C703.38,466.21,702.95,465.87,702.53,465.54z"/>
	<path d="M721.07,489.09c-0.7-0.71-1.4-1.41-2.1-2.12C720.39,486.96,721.5,487.26,721.07,489.09z"/>
	<path d="M727.06,493c0.98-0.35,1.62,0.06,2.09,0.9c-0.2,0.24-0.41,0.48-0.61,0.72c-0.5-0.53-1-1.07-1.5-1.6L727.06,493z"/>
	<path d="M696.94,473.1c-1.12-0.28-1.82-0.78-1.04-2.03C697.54,471.09,697.83,471.79,696.94,473.1z"/>
	<path d="M737.83,463.22c-0.75-0.43-2.29-0.64-1.44-1.84c0.76-1.07,1.69-0.01,2.37,0.7C738.45,462.46,738.14,462.84,737.83,463.22z"
		/>
	<path d="M705.45,461.45c0.62-0.55,0.98-2.12,2.08-0.96c0.43,0.44-0.54,1.33-1.27,1.72C705.99,461.96,705.72,461.71,705.45,461.45z"
		/>
	<path d="M729.15,493.9c0.47,0.18,0.93,0.36,1.4,0.54c-0.25,0.28-0.51,0.56-0.76,0.84c-0.42-0.22-0.83-0.44-1.25-0.66
		C728.74,494.38,728.94,494.14,729.15,493.9z"/>
	<path d="M726.01,492.03c0.57,0.09,1.22,0.08,1.04,0.97c0,0-0.02,0.02-0.02,0.02c-0.64-0.07-1.26-0.15-0.94-1.06L726.01,492.03z"/>
	<path d="M671.16,471.66c2.94-1.19,6-1.9,9.17-1.62c2.95,0.26,5.44,1.35,6.18,4.65c-0.17,0.12-0.34,0.24-0.51,0.36
		c-3.23-3.2-6.99-4.02-11.26-2.5c-15.36,4.14-19.31,14.74-12.98,34.81c-5.78-3.41-8.34-19.12-1.85-27.11
		C663.08,476.34,667.27,474.32,671.16,471.66z"/>
	<path class="st0" d="M674.75,472.55c4.28-1.52,8.03-0.7,11.26,2.5c-0.04,0.65-0.04,1.85-0.12,1.86c-4.18,0.3-6.78,4.14-10.77,4.78
		C674.99,478.64,674.87,475.59,674.75,472.55z"/>
	<path class="st0" d="M672.11,484.2c1.59-0.4,3.78-1.29,4.42,0.56c0.68,1.97,1.84,4.45,0.05,6.53c-0.94,1.09-1.72,2.49-3.3,2.91
		C670.85,491.11,672.41,487.54,672.11,484.2z"/>
	<path d="M655.63,514.98c0.11-0.61,0.22-1.22,0.34-1.83c0.14-0.27,0.28-0.53,0.43-0.8c2.79,2.77,5.34,5.68,6.01,9.75
		c-3.29-0.23-3.29-4.66-6.46-5.04C655.16,516.47,655.6,515.69,655.63,514.98z"/>
	<path d="M675.99,515.92c0.02-0.63,0.03-1.27,0.05-1.9c0.22-0.21,0.45-0.42,0.67-0.63c0.5,0.82,1.01,1.64,1.51,2.47
		c-0.24,0.21-0.49,0.42-0.73,0.63c-0.41-0.36-0.67-1.16-1.43-0.49C676.05,515.99,675.99,515.92,675.99,515.92z"/>
	<path d="M669.19,510.87c0.66,1.17-0.21,1.04-0.44,1.36c-0.28-0.39-0.58-0.75-0.82-1.16c-0.43-0.73,0.41-0.67,0.65-0.98
		C668.88,510.47,669.18,510.85,669.19,510.87z"/>
	<path d="M662.03,509.45c-0.44-0.42-0.92-1.04-0.37-1.47c0.89-0.69,1.24,0.18,1.57,0.84C662.83,509.03,662.43,509.24,662.03,509.45z
		"/>
	<path d="M665.12,569.48c4.32,0.49,8.11,2.13,11.29,5.12c-0.35,0.52-0.71,1.04-1.06,1.57c-2.42-1.16-4.84-2.33-7.26-3.49
		c-12.53-3.58-19.9,2.23-20.28,16.26c-2.79-2.61-2.04-5.54-1.06-8.25C649.84,572.07,656.69,569.43,665.12,569.48z"/>
	<path d="M657.53,564.7c-0.7,0.24-1.39,0.48-2.09,0.72c-0.31-0.37-0.63-0.75-0.94-1.12c0.74-0.25,1.49-0.49,2.23-0.74
		C656.99,563.95,657.26,564.33,657.53,564.7z"/>
	<path d="M655.43,565.43c-0.66,0.34-1.33,0.67-1.99,1.01c-0.32-0.38-0.64-0.76-0.96-1.14c0.67-0.33,1.34-0.66,2.01-0.99
		C654.81,564.68,655.12,565.05,655.43,565.43z"/>
	<path d="M653.44,566.43c-0.64,0.39-1.27,0.78-1.91,1.17c-0.32-0.39-0.63-0.78-0.95-1.17c0.63-0.38,1.26-0.75,1.9-1.13
		C652.8,565.68,653.12,566.06,653.44,566.43z"/>
	<path d="M651.53,567.6c-0.58,0.37-1.16,0.75-1.75,1.12c-0.3-0.31-0.6-0.61-0.9-0.92c0.01-0.3,0.09-0.57,0.24-0.83
		c0,0-0.1,0.09-0.1,0.09c0.52-0.21,1.03-0.42,1.55-0.63C650.9,566.82,651.22,567.21,651.53,567.6z"/>
	<path d="M648.62,590.08c0.08,0.11,0.24,0.23,0.22,0.33c-0.01,0.1-0.19,0.18-0.29,0.27c-0.08-0.11-0.24-0.23-0.22-0.33
		C648.34,590.25,648.51,590.17,648.62,590.08z"/>
	<path class="st1" d="M688.67,580.02c1.12-4.9-3.43-6.51-5.64-9.77c3.29-1.18,6.57-2.36,9.85-3.53c0.11,4.81,0.23,9.62,0.34,14.43
		c-0.59,1.46-1.5,0.48-2.31,0.31C689.54,581.96,689.49,580.4,688.67,580.02z"/>
	<path d="M690.92,581.45c0.81,0.17,1.72,1.16,2.31-0.31c0.79,0.01,1.5-1.07,2.35-0.15c0.63,4.35-1.49,8.09-2.7,12.03
		C691.87,591.37,690.45,583.03,690.92,581.45z"/>
	<path d="M685.05,596.99c-1.98-0.73-2.03-0.79-4.45-4.87c-0.15-0.96-1.84-2.21,0.52-2.68C682.93,591.7,685.4,593.62,685.05,596.99z"
		/>
	<path d="M676.42,574.6c1.42,0.75,2.83,1.5,2.81,3.78c-1.95,0.26-2.83-1.14-3.86-2.21C675.71,575.64,676.06,575.12,676.42,574.6z"/>
	<path d="M682.7,584.33c-0.7-0.88-1.44-1.72-2.07-2.65c-0.21-0.31-0.12-0.83-0.21-1.66c2.16,0.08,2.81,1.44,3.41,2.86
		C683.46,583.37,683.08,583.85,682.7,584.33z"/>
	<path d="M679.61,587.92c-0.8,2.31-2.01,0.75-2.8,0.13c-0.73-0.57-2.84-1.18-0.67-2.64C677.62,585.81,678.67,586.79,679.61,587.92z"
		/>
	<path d="M692.88,593.02c1.88,0.7,2.61,1.76,1.09,3.52C693.37,595.44,691.29,594.79,692.88,593.02z"/>
	<path class="st1" d="M636.38,536.34c0.42-0.21,0.85-0.42,1.27-0.63c0.66-0.33,1.31-0.66,1.97-1c0.66-0.33,1.31-0.67,1.97-1
		c0.99-0.35,1.97-0.7,2.96-1.05c0.87-0.13,1.73-0.27,2.6-0.4c-0.01,1.53-0.02,3.07-0.03,4.6c-3.44,1.85-7.17,3.3-9.51,6.71
		c-3.33,0.43-4.07-2.3-5.35-4.38c0.38-0.28,0.76-0.55,1.15-0.83c0.39-0.24,0.79-0.49,1.18-0.73
		C635.19,537.19,635.78,536.76,636.38,536.34z"/>
	<path d="M637.61,543.56c2.34-3.41,6.07-4.86,9.51-6.71c6.38-1.55,12.22-0.49,17.47,3.53c-0.2,0.23-0.4,0.46-0.59,0.69
		c-5.15-2.25-10.3-4.54-16.1-2.4c-3.98,0.6-6.47,3.52-9.29,5.94C638.28,544.26,637.94,543.91,637.61,543.56z"/>
	<path class="st1" d="M646.52,516.84c0,0-0.1,0.11-0.1,0.11c1.5,0.14,2.77,0.08,1.77-2c0.26-0.16,0.51-0.15,0.76,0.02
		c-0.73,3.56,2.68,0.37,3.16,1.94c0.01,1.63,0.03,3.26,0.04,4.88c-0.33,0.08-0.67,0.16-1,0.24c-0.89,0.34-1.78,0.68-2.68,1.03
		C647.21,521.18,646.87,519.01,646.52,516.84z"/>
	<path d="M646.52,516.84c0.35,2.17,0.69,4.35,1.96,6.23c-1.76,0.48-0.93,2.45-1.94,3.36c-0.41-0.32-0.82-0.63-1.23-0.95
		c1.64-4.58-2.14-7.13-3.9-10.44c1.27-0.33,2.15,0.62,3.2,1C645.31,516.17,646.38,515.38,646.52,516.84z"/>
	<path d="M636.13,515.48c-1.65-0.17-3.21-0.5-1.56-2.54c0.7-0.87,2.52-2.69,2.82-1.27c0.58,2.75,3.57,1.53,4.2,3.47
		C639.88,517.13,637.89,514.43,636.13,515.48z"/>
	<path d="M652.11,516.92c-0.49-1.57-3.89,1.62-3.16-1.94c1.73,0.02,3.46,0.04,5.19,0.06c0.58,0.72,0.06,1.27-0.29,1.85
		C653.27,516.9,652.69,516.91,652.11,516.92z"/>
	<path d="M655.56,531.68c-2.21,0-4.41,0-6.62,0c2.43-2.23,5.09-1.76,7.75-1.31C656.31,530.81,655.93,531.24,655.56,531.68z"/>
	<path d="M651.15,522.04c0.33-0.08,0.67-0.16,1-0.24c1.24,0.12,2.49,0.25,3.73,0.37C654.21,523.23,652.6,523.59,651.15,522.04z"/>
	<path class="st1" d="M653.85,516.89c0.36-0.58,0.88-1.12,0.29-1.85c0.5-0.02,0.99-0.04,1.49-0.06c-0.03,0.71-0.47,1.49,0.31,2.08
		C655.24,517,654.55,516.94,653.85,516.89z"/>
	<path d="M656.69,530.37c1.07,0.2,2.27,0.19,2.81,1.58c-1.4,1.07-2.65-0.09-3.95-0.27C655.93,531.24,656.31,530.81,656.69,530.37z"
		/>
	<path d="M664.59,540.37c0.61,0.44,1.43,0.69,1.43,1.65c0,0,0.07-0.1,0.07-0.09c-1.13,0.77-1.58-0.13-2.1-0.86
		C664.19,540.83,664.39,540.6,664.59,540.37z"/>
	<path d="M661.55,533.71c-0.78-0.43-2.36-0.74-1.83-1.67c0.81-1.39,1.82,0.13,2.71,0.53C662.14,532.95,661.85,533.33,661.55,533.71z
		"/>
	<path d="M646.54,526.43c-0.57,0.77-0.84,2.53-2.1,1.61c-1.17-0.85,0.34-1.76,0.87-2.57C645.72,525.8,646.13,526.12,646.54,526.43z"
		/>
	<path d="M662.44,532.57c0.6,0.42,1.19,0.84,1.79,1.26c-0.22,0.32-0.44,0.64-0.66,0.95c-0.67-0.36-1.35-0.71-2.02-1.07
		C661.85,533.33,662.14,532.95,662.44,532.57z"/>
	<path d="M664.23,533.83c0.39,0.37,1.17,0.95,1.1,1.08c-0.59,1.09-1.17,0.18-1.76-0.12C663.79,534.47,664.01,534.15,664.23,533.83z"
		/>
	<path d="M722.97,443.03c1.3-1.45,2.17-3.07,2.07-5.09c1.18,0.79,3.29,1.76,2.68,2.91C726.98,442.27,725.15,443.59,722.97,443.03z"
		/>
	<path d="M650.18,509.03c0.37,0.56,0.32,1.08-0.14,1.56c-1.63-0.06-3.27-0.13-4.9-0.19c-1.59-0.77-3.03,0.46-4.57,0.34
		c-0.31-0.41-0.61-0.81-0.92-1.22c0.82-0.29,1.63-0.58,2.45-0.87C644.8,508.77,647.49,508.9,650.18,509.03z"/>
	<path d="M640.57,510.73c-1.1,0.35-2.43,2.2-3.2,0.8c-0.9-1.63,1.35-1.47,2.28-2.02C639.96,509.92,640.26,510.33,640.57,510.73z"/>
	<path d="M738.77,633.02c-3.35,0.41-5.39,3.71-8.8,3.98c2.57-4.09,7.35-4.49,11.09-6.63c3.2-0.33,6.48-0.71,7.29,3.62
		c0.14,0.76,0.53,2.94-1.38,1.72c-2.9-1.85-5.32-0.36-7.92,0.36c0.16-0.52,0.31-1.04,0.47-1.57c0.59-0.51,2.27-0.07,1.77-1.37
		C740.95,632.24,739.65,632.7,738.77,633.02z"/>
	<path d="M725.24,636.18c-1.1,1.74-1.96,3.7-4.66,4.6c0.32-2.86,2.37-3.98,3.91-5.44C724.74,635.62,724.99,635.9,725.24,636.18z"/>
	<path d="M729.1,632.06c-0.55-1.68,0.88-1.75,1.81-2.22c0.21,0.26,0.43,0.51,0.65,0.75c-0.7,0.72-1.45,1.37-2.54,1.36
		C729.02,631.96,729.1,632.06,729.1,632.06z"/>
	<path d="M733.34,629.3c-0.59,0.43-1.19,0.86-1.78,1.29c-0.22-0.24-0.44-0.5-0.65-0.75c0.53-0.5,1.07-0.99,1.6-1.49
		C732.79,628.67,733.06,628.98,733.34,629.3z"/>
	<path d="M734.55,628.73c-0.4,0.19-0.81,0.38-1.21,0.57c-0.28-0.32-0.55-0.64-0.83-0.96c0.4-0.24,0.8-0.48,1.2-0.72
		C733.99,628,734.27,628.36,734.55,628.73z"/>
	<path d="M728.04,632.98c-0.31-1.07,0.14-1.27,1.06-0.93c0,0-0.08-0.1-0.08-0.1C728.7,632.3,728.37,632.64,728.04,632.98z"/>
	<path d="M728.04,632.98c-0.27,0.4-0.54,0.79-0.81,1.19c-0.27-0.25-0.55-0.51-0.82-0.76C726.91,633.06,727.22,632.05,728.04,632.98z
		"/>
	<path d="M727.24,634.17c-0.33,0.33-0.66,0.67-1,1c-0.28-0.25-0.55-0.51-0.83-0.76c0.34-0.34,0.67-0.67,1.01-1.01
		C726.69,633.67,726.96,633.92,727.24,634.17z"/>
	<path d="M726.24,635.18c-0.33,0.33-0.66,0.67-1,1c-0.25-0.28-0.5-0.56-0.75-0.85c0.31-0.31,0.61-0.61,0.92-0.92
		C725.68,634.67,725.96,634.92,726.24,635.18z"/>
	<path class="st0" d="M695.57,580.99c-0.85-0.91-1.56,0.17-2.35,0.15c-0.11-4.81-0.23-9.62-0.34-14.43c2.6-2.72,4.81-4.49,6.3,1.05
		c0.76,2.84,3.16,4.88,5.55,6.69c-2.78,2.31-8,0.91-8.67,6.05C695.9,580.66,695.74,580.82,695.57,580.99z"/>
	<path d="M738.07,637.11c-0.12-0.83,0.12-1.32,1.08-1.14C738.88,636.43,739.3,637.55,738.07,637.11z"/>
	<path d="M676.08,594.05c-1.07-0.32-2.67-0.14-2.05-2.11C675.28,592.1,676.5,592.28,676.08,594.05z"/>
	<path d="M648.19,514.96c1,2.07-0.27,2.13-1.77,2C645.98,515.37,647.27,515.33,648.19,514.96z"/>
	<path d="M694.94,545.13c-2.81-1.65-5.6-2.86-8.75-0.6c-2.78,1.99-2.39,4.64-0.88,8.44c-4.18-4.34-3.13-15.63,0.93-21.96
		c0.42,0.48,0.85,0.96,1.27,1.45c-0.45,1.06-1.21,2.1-1.29,3.19c-0.15,2.03-2.73,5.23,0.34,5.81c2.42,0.46,7.07,2.53,8.18-3.07
		c0.38-1.91,1.42-4.04,4.1-5.01c0.41,4.16-4.33,6.82-2.89,10.92C695.62,544.56,695.28,544.85,694.94,545.13z"/>
	<path d="M693.33,526.32c-1.94,2.04-3.87,4.08-5.81,6.13c-0.42-0.48-0.85-0.96-1.27-1.45c1.54-2.5,2.99-5.1,6.16-5.89
		C692.71,525.51,693.02,525.92,693.33,526.32z"/>
	<path d="M707.95,539.97c-0.06-2.26,0.41-3.45,2.27-3.55c0.31-0.02,0.96,0.53,0.94,0.76C710.98,538.96,709.58,539.21,707.95,539.97z
		"/>
	<path d="M695.69,524.9c-0.79,0.47-1.57,0.95-2.36,1.42c-0.31-0.4-0.61-0.81-0.92-1.21c0.78-0.48,1.56-0.97,2.34-1.45
		C695.06,524.07,695.37,524.48,695.69,524.9z"/>
	<path d="M703.34,546.85c-0.67-2.05-0.05-2.97,1.46-3.47C705.69,545.04,705.13,546.11,703.34,546.85z"/>
	<path d="M695.96,544.28c0.59,0.6,1.97,1.2,0.96,2.08c-0.89,0.78-1.45-0.55-1.98-1.23C695.28,544.85,695.62,544.56,695.96,544.28z"
		/>
	<path d="M708.37,546.42c0.88-0.49,1.85-1.98,2.74-0.72c0.65,0.93-0.91,1.26-1.63,1.73C709.11,547.1,708.74,546.76,708.37,546.42z"
		/>
	<path d="M705.81,548.75c0.56-0.53,1.12-1.07,1.69-1.6c0.23,0.33,0.47,0.66,0.7,0.99c-0.53,0.5-1.06,1.01-1.59,1.51
		C706.34,549.35,706.08,549.05,705.81,548.75z"/>
	<path d="M707.5,547.15c0.29-0.24,0.58-0.48,0.87-0.72c0.37,0.34,0.74,0.67,1.11,1.01c-0.43,0.24-0.86,0.47-1.29,0.71
		C707.96,547.81,707.73,547.48,707.5,547.15z"/>
	<path d="M706.61,549.65c-0.34,0.34-0.68,0.68-1.01,1.02c-0.34-0.39-0.68-0.78-1.03-1.16c0.41-0.25,0.83-0.5,1.24-0.75
		C706.08,549.05,706.34,549.35,706.61,549.65z"/>
	<path d="M705.59,550.67c-0.3,0.3-0.59,0.59-0.89,0.89c-0.38-0.35-0.76-0.7-1.15-1.05c0.04-0.63,0.37-0.97,1-1
		C704.91,549.89,705.25,550.28,705.59,550.67z"/>
	<path d="M691.8,498.71c0.35,2.95,0.7,5.89,1.05,8.84c-0.42,0.28-0.84,0.57-1.27,0.85c-1.96-3.45-2.02-7.11-1.16-10.86
		C690.88,497.93,691.34,498.32,691.8,498.71z"/>
	<path d="M699.84,502.5c0.27,1.09,2.12,2.35,0.49,3.15c-1.06,0.52-1.25-1.4-1.58-2.39C699.11,503.01,699.47,502.76,699.84,502.5z"/>
	<path d="M692.85,507.54c0.18,0.86,1.46,1.9,0.42,2.49c-1.23,0.69-1.18-0.98-1.68-1.63C692.01,508.11,692.43,507.83,692.85,507.54z"
		/>
	<path d="M701.93,508.13c-0.68-0.55-2.05-1.2-1.1-2.03c1-0.88,1.38,0.76,2,1.34C702.53,507.67,702.23,507.9,701.93,508.13z"/>
	<path d="M703.63,508.25c0.4,0.4,0.8,0.79,1.2,1.19c-0.3,0.23-0.6,0.46-0.9,0.69c-0.34-0.34-0.67-0.67-1.01-1.01
		C703.16,508.83,703.4,508.54,703.63,508.25z"/>
	<path d="M704.84,509.44c0.26,0.25,0.53,0.49,0.79,0.74c-0.23,0.31-0.45,0.61-0.68,0.92c-0.34-0.32-0.68-0.65-1.02-0.97
		C704.24,509.89,704.54,509.67,704.84,509.44z"/>
	<path d="M702.93,509.12c-0.33-0.33-0.67-0.66-1-0.98c0.3-0.23,0.6-0.46,0.9-0.69c0.27,0.27,0.54,0.54,0.8,0.8
		C703.4,508.54,703.16,508.83,702.93,509.12z"/>
	<path class="st1" d="M650.58,566.43c-0.52,0.21-1.03,0.42-1.55,0.63c-1.2-1.94,0.45-3.68,0.37-5.54c0.25-0.47,0.52-0.94,0.78-1.4
		c0.41-0.44,0.83-0.87,1.24-1.31c-0.19-0.18-0.38-0.36-0.57-0.53c-0.36,0.47-0.72,0.93-1.08,1.4c-0.24,0.44-0.48,0.87-0.72,1.3
		c-0.98,0.12-1.18,2.86-2.81,0.84c-0.07-1.63-3.03-2.2-1.6-4.38c0.41-0.62,0.82-1.24,1.23-1.86c0.28-0.32,0.56-0.63,0.84-0.95
		c0.32-0.35,0.64-0.69,0.96-1.04c0.33-0.28,0.67-0.57,1-0.85c1.22-1.16,3.48-1.41,3.36-3.77c0.85-0.75,1.68-1.55,2.97-0.96
		c2.67,1.94,5.37,1.29,8.06,0.05c0.62,0.31,1.23,0.62,1.85,0.93c0.08,2.43-2.02,1.94-3.34,2.47c-3.31,1.34-6.83,2.32-9.13,5.42
		c2.96-1.09,5.45-3.22,8.62-3.77c0.03,2.99,0.06,5.98,0.08,8.97c-1.48,0.49-2.95,0.99-4.43,1.48c-0.74,0.25-1.49,0.49-2.23,0.74
		c-0.67,0.33-1.34,0.66-2.01,0.99C651.85,565.67,651.22,566.05,650.58,566.43z"/>
	<path class="st1" d="M678.22,515.86c-0.5-0.82-1.01-1.64-1.51-2.47c-3.38-6.16-4.57-12.44-0.67-18.82
		c0.66-1.07,1.08-3.21,3.16-2.17c1.69,0.85,1.9,2.12,1.25,4.12c-2.13,6.54-2.47,12.99,2.63,18.59l-0.09-0.13
		c0.31,1.11,0.71,2.12,2.14,2.09l-0.12-0.13c0.82,2.71,0.25,3.99-2.61,2.26C680.87,518.28,679.6,516.98,678.22,515.86z"/>
	<path class="st1" d="M683.07,515.1c-0.97-4.58-3.24-8.96-2.19-13.87c0.28-1.29,0.39-2.63,0.76-3.89c0.36-1.18,0.55-2.96,2.47-2.29
		c1.74,0.61,0.47,1.92,0.33,2.93c-1.01,6.91,0.07,13.16,5.62,18.02c-1.21,2.94-3.13,1.94-5.06,0.93c0,0,0.12,0.13,0.12,0.13
		c-0.33-1.09-0.53-2.3-2.14-2.09L683.07,515.1z"/>
	<path class="st0" d="M661.15,562.09c-0.03-2.99-0.05-5.98-0.08-8.97c3.47-1.93,5.67-1.6,6.15,3c0.21,1.99,1.27,3.9,1.99,5.97
		C666.28,562.09,663.71,562.09,661.15,562.09z"/>
	<path class="st0" d="M664,541.07c0.52,0.73,0.96,1.63,2.1,0.86c0.05,1.53,1.12,3.74-2.07,3.11c-4.94-3.7-10.42-3.09-15.96-1.97
		c-0.06-1.47-0.11-2.94-0.17-4.4C653.7,536.53,658.85,538.82,664,541.07z"/>
	<path class="st1" d="M676.05,515.99c0.76-0.67,1.02,0.13,1.43,0.49c-0.45,0.85-1.1,1.03-1.8,0.39
		C675.3,516.52,675.52,516.12,676.05,515.99z"/>
	<path class="st1" d="M726.1,491.96c-0.32,0.91,0.3,1,0.94,1.06c0.5,0.53,1,1.07,1.5,1.6c0.42,0.22,0.83,0.44,1.25,0.66
		c0.56,0.49,1.12,0.97,1.68,1.46l0.09-0.04c-5.99,1.03-8.01,0.01-7.29-3.64C724.48,491.94,725.49,492.32,726.1,491.96z"/>
	<path class="st1" d="M731.46,496.74c-0.03,0.28-0.07,0.56-0.1,0.84c-0.73-0.44-0.13-0.62,0.18-0.87
		C731.55,496.7,731.46,496.74,731.46,496.74z"/>
	<path d="M663.07,548.07c-2.69,1.24-5.39,1.89-8.06-0.05C657.7,548.04,660.38,548.05,663.07,548.07z"/>
	<path class="st1" d="M647.9,538.67c0.06,1.47,0.11,2.94,0.17,4.4c-2.2,1.43-4.4,2.87-6.6,4.3c-0.5,0.5-1.01,1.01-1.51,1.51
		c-0.33,0.33-0.65,0.67-0.98,1c-2.73-1.58-1.65-3.42-0.37-5.28C641.42,542.19,643.92,539.28,647.9,538.67z"/>
	<path class="st1" d="M649.13,566.97c-0.16,0.25-0.24,0.53-0.24,0.83c-0.15-0.24-0.46-0.51-0.42-0.73
		C648.53,566.6,648.84,566.58,649.13,566.97z"/>
	<path class="st1" d="M738.77,633.02c0.89-0.33,2.19-0.78,2.53,0.12c0.49,1.3-1.18,0.85-1.77,1.37
		C739.27,634.02,739.02,633.52,738.77,633.02z"/>
	<path d="M649.77,559.68c0.36-0.47,0.72-0.93,1.08-1.4c0.19,0.18,0.38,0.36,0.57,0.53c-0.41,0.44-0.83,0.87-1.24,1.31
		C650.04,559.97,649.91,559.83,649.77,559.68z"/>
	<path d="M649.05,560.99c0.24-0.43,0.48-0.87,0.72-1.3c0.13,0.15,0.27,0.29,0.41,0.44c-0.26,0.46-0.52,0.93-0.78,1.4
		C649.29,561.34,649.17,561.17,649.05,560.99z"/>
	<path d="M682.98,514.97c1.6-0.21,1.8,1.01,2.14,2.09C683.69,517.09,683.29,516.07,682.98,514.97z"/>
</g>
</svg>
